<svg width="597" height="408" viewBox="0 0 597 408" fill="none" xmlns="http://www.w3.org/2000/svg">
<g clip-path="url(#clip0_132_186)">
<path opacity="0.1" d="M346.862 67.2664C308.589 65.9013 272.141 53.2978 237.356 39.4932C202.571 25.6886 168.07 10.392 130.715 3.07959C106.662 -1.62423 79.1827 -2.28562 59.8237 10.8734C41.1953 23.5299 35.1741 45.3823 31.9407 65.6526C29.5053 80.907 28.0751 96.9656 34.744 111.241C39.3765 121.157 47.5999 129.49 53.2895 138.988C73.0942 172.026 59.1034 212.773 37.6458 245.038C27.5828 260.171 15.9135 274.61 8.15126 290.722C0.388998 306.833 -3.20196 325.294 3.59132 341.729C10.3276 358.015 26.3651 370.253 43.7447 378.856C79.0428 396.317 120.637 401.339 161.194 404.175C250.979 410.445 341.239 407.73 431.262 405.011C464.576 404.005 498.039 402.984 530.809 397.725C549.012 394.804 567.801 390.169 581.015 378.973C597.788 364.766 601.944 340.707 590.705 322.887C571.853 293.002 519.715 285.584 506.548 253.509C499.293 235.858 506.745 216.191 517.284 199.82C539.897 164.698 577.797 133.887 579.797 93.738C581.165 66.1659 562.946 38.5567 534.773 25.4823C505.237 11.81 464.301 13.5296 442.512 36.1651C420.08 59.499 380.657 68.4675 346.862 67.2664Z" fill="#00A69F"/>
<g opacity="0.5">
<path opacity="0.5" d="M259.481 213.011L242.143 213.377L239.309 217.35V231.081L242.848 233.61H259.481L263.021 229.636V216.625L259.481 213.011Z" fill="#00A69F"/>
<path opacity="0.2" d="M259.119 215.18C259.119 215.18 243.195 217.709 241.781 215.18L242.138 213.376L259.119 212.995V215.18Z" fill="white"/>
<path opacity="0.5" d="M260.896 252.758L263.725 255.652V269.409L260.896 272.256C260.896 272.256 250.636 275.87 243.91 272.975L240.724 269.727V255.97L243.558 252.716L260.896 252.758Z" fill="#00A69F"/>
<path opacity="0.2" d="M260.186 256.012C260.186 256.012 247.802 258.901 243.558 256.012V252.758H260.896L260.186 256.012Z" fill="white"/>
<path opacity="0.5" d="M254.17 233.514V253.059C254.13 253.833 253.791 254.56 253.228 255.079C252.665 255.599 251.923 255.869 251.165 255.832V255.832C250.407 255.869 249.665 255.599 249.102 255.079C248.538 254.56 248.2 253.833 248.159 253.059V233.514C248.159 231.853 249.714 230.567 251.517 230.757C252.215 230.801 252.872 231.107 253.362 231.616C253.851 232.125 254.139 232.801 254.17 233.514V233.514Z" fill="#00A69F"/>
<path opacity="0.5" d="M287.25 213.572L269.912 213.931L267.078 217.905V231.636L270.617 234.165H287.25L290.79 230.191V217.18L287.25 213.572Z" fill="#00A69F"/>
<path opacity="0.2" d="M286.893 215.736C286.893 215.736 270.969 218.265 269.555 215.736L269.907 213.931L286.893 213.572V215.736Z" fill="white"/>
<path opacity="0.5" d="M288.655 253.313L291.484 256.208V269.965L288.655 272.827C288.655 272.827 278.39 276.441 271.669 273.547L268.482 270.298V256.567L271.316 253.313H288.655Z" fill="#00A69F"/>
<path opacity="0.2" d="M287.955 256.568C287.955 256.568 275.571 259.456 271.327 256.568V253.313H288.655L287.955 256.568Z" fill="white"/>
<path opacity="0.5" d="M281.918 234.07V253.615C281.877 254.389 281.538 255.114 280.975 255.633C280.412 256.152 279.671 256.424 278.913 256.388V256.388C278.154 256.425 277.412 256.155 276.848 255.635C276.284 255.116 275.944 254.389 275.902 253.615V234.07C275.902 232.408 277.457 231.122 279.265 231.313C279.963 231.357 280.62 231.662 281.11 232.171C281.6 232.68 281.888 233.357 281.918 234.07V234.07Z" fill="#00A69F"/>
<path opacity="0.5" d="M322.6 224.022L308.325 224.323L305.993 227.593V238.895L308.905 240.98H322.6L325.512 237.705V226.995L322.6 224.022Z" fill="#00A69F"/>
<path opacity="0.2" d="M322.305 225.81C322.305 225.81 309.2 227.89 308.034 225.81L308.325 224.323L322.315 224.022L322.305 225.81Z" fill="white"/>
<path opacity="0.5" d="M323.761 256.742L326.093 259.123V270.425L323.761 272.806C323.761 272.806 315.315 275.78 309.77 273.399L307.148 270.721V259.419L309.48 256.742H323.761Z" fill="#00A69F"/>
<path opacity="0.2" d="M323.181 259.419C323.181 259.419 312.983 261.8 309.49 259.419V256.742H323.761L323.181 259.419Z" fill="white"/>
<path opacity="0.5" d="M318.227 240.9V256.991C318.193 257.628 317.914 258.226 317.45 258.653C316.986 259.081 316.374 259.303 315.75 259.271V259.271C315.126 259.303 314.516 259.081 314.052 258.653C313.589 258.226 313.311 257.628 313.278 256.991V240.9C313.298 240.56 313.388 240.228 313.541 239.925C313.694 239.622 313.907 239.355 314.167 239.141C314.427 238.927 314.728 238.771 315.051 238.683C315.373 238.596 315.71 238.578 316.04 238.631C316.615 238.666 317.156 238.918 317.56 239.337C317.964 239.756 318.201 240.313 318.227 240.9Z" fill="#00A69F"/>
<path opacity="0.5" d="M345.457 224.482L331.181 224.778L328.855 228.048V239.355L331.767 241.435H345.457L348.369 238.165V227.456L345.457 224.482Z" fill="#00A69F"/>
<path opacity="0.2" d="M345.167 226.265C345.167 226.265 332.057 228.35 330.891 226.265L331.181 224.778L345.172 224.482L345.167 226.265Z" fill="white"/>
<path opacity="0.5" d="M346.623 257.202L348.949 259.578V270.88L346.623 273.261C346.623 273.261 338.171 276.235 332.632 273.859L330.015 271.197V259.88L332.347 257.202H346.623Z" fill="#00A69F"/>
<path opacity="0.2" d="M346.037 259.88C346.037 259.88 335.845 262.255 332.347 259.88V257.202H346.623L346.037 259.88Z" fill="white"/>
<path opacity="0.5" d="M341.089 241.355V257.441C341.055 258.078 340.776 258.676 340.312 259.103C339.847 259.531 339.236 259.753 338.612 259.721C337.988 259.753 337.377 259.531 336.912 259.103C336.448 258.676 336.169 258.078 336.135 257.441V241.355C336.135 239.99 337.431 238.932 338.902 239.091C339.476 239.126 340.018 239.376 340.421 239.794C340.825 240.213 341.063 240.769 341.089 241.355V241.355Z" fill="#00A69F"/>
</g>
<path d="M543.597 282.875C542.483 280.817 540.4 279.462 538.208 278.838C535.99 278.294 533.697 278.147 531.43 278.404C527.768 278.67 524.137 279.281 520.585 280.23C518.382 280.822 516.097 281.616 514.61 283.404C514.569 283.457 514.522 283.521 514.475 283.574C512.201 284.182 509.941 285.119 507.739 285.88C505.529 286.629 503.28 287.253 501.003 287.748C503.982 286.018 506.884 284.187 509.34 281.743C510.501 280.592 511.543 279.323 512.449 277.954C514.132 278.447 515.899 278.567 517.631 278.309C521.139 277.695 523.974 275.134 526.611 272.637L535.094 264.668C536.446 263.398 537.819 262.097 538.721 260.435C539.939 258.123 540.047 255.372 540.078 252.731C540.12 249.102 540.078 245.472 539.975 241.848L542.659 243.964C542.251 239.494 543.065 234.995 545.012 230.969C545.944 229.048 547.167 227.138 547.193 224.985C547.234 221.662 544.436 219.048 541.571 217.577C538.705 216.106 535.482 215.164 533.135 212.905C529.642 209.545 528.99 204.185 527.264 199.582C526.241 197.061 525.028 194.626 523.637 192.296L520.279 186.317C518.59 183.166 516.707 180.128 514.641 177.222C511.149 172.518 506.749 168.639 502.381 164.803L479.664 144.819C474.141 139.956 468.596 135.088 462.622 130.834C450.502 122.204 436.827 116.278 423.24 110.41C419.82 108.929 416.261 107.426 412.561 107.606C409.774 107.79 407.133 108.944 405.078 110.876C403.131 110.272 401.227 109.533 399.378 108.664L399.233 108.595C399.275 108.283 399.321 107.976 399.352 107.664C399.399 107.251 399.425 106.839 399.456 106.421C400.479 106.26 401.47 105.929 402.389 105.442C402.855 105.217 403.267 104.89 403.596 104.484C404.014 103.778 404.227 102.965 404.213 102.14C404.627 96.611 405.042 91.0288 404.596 85.526C404.151 80.0232 402.798 74.4517 399.933 69.7743C399.047 68.3245 397.938 66.9118 396.399 66.2821C394.326 65.4356 391.927 66.2239 389.714 65.843C385.885 65.1816 383.496 61.3561 380.724 58.5359C373.713 51.3982 361.723 50.3241 353.629 56.102C350.561 58.2978 348.105 61.2767 345.369 63.9011C342.633 66.5255 339.425 68.9013 335.731 69.4145C335.05 69.444 334.383 69.6245 333.777 69.9436C333.021 70.4304 332.679 71.3669 332.389 72.2347C331.352 75.2295 330.357 78.3036 330.041 81.436C330.005 81.2455 329.974 81.055 329.943 80.8645C329.802 82.0246 329.773 83.196 329.855 84.362C329.958 85.8479 330.379 87.2927 331.088 88.5949C331.678 89.8328 332.684 90.813 333.922 91.3569C334.799 91.6734 335.724 91.8258 336.653 91.8066H337.063C336.912 92.214 336.767 92.6215 336.633 93.0342C335.479 96.5308 334.892 100.197 334.897 103.886C334.897 122.405 349.369 137.411 367.236 137.411C369.386 137.4 371.53 137.17 373.635 136.723C374.335 136.951 375.035 137.183 375.708 137.432C377.088 137.898 378.44 138.442 379.76 139.062C380.32 139.332 382.584 140.681 385.32 142.422L385.134 142.819C382.465 145.364 380.506 148.589 379.46 152.162C378.414 155.735 378.317 159.528 379.18 163.152C381.159 171.02 387.652 177.767 386.999 185.867C386.906 187.021 386.668 188.19 386.859 189.333C387.124 190.92 388.175 192.211 389.227 193.386C390.139 194.412 391.088 195.407 392.051 196.381C391.974 201.55 391.533 206.714 391.056 211.868C391.015 212.318 391.005 212.773 390.999 213.233C391.027 215.461 391.82 217.609 393.238 219.302C394.741 221.17 395.342 223.969 395.057 226.466C394.647 230.043 392.922 233.287 391.766 236.678C386.554 251.932 392.958 269.134 389.352 284.886C388.466 288.764 386.973 292.537 386.761 296.526C386.642 299.018 387.025 301.632 386.087 303.934C385.274 305.934 383.579 307.378 381.978 308.781C379.715 310.759 377.511 312.805 375.366 314.918C372.124 313.108 368.777 311.5 365.345 310.103C364.785 309.873 364.214 309.672 363.635 309.5C359.583 305.627 354.473 303.151 349.675 300.304C345.695 297.95 341.902 295.304 338.089 292.658C334.461 290.119 330.756 287.558 327.689 284.293C326.134 282.642 324.751 280.822 323.077 279.314C321.606 278.064 320.047 276.925 318.414 275.907C311.061 271.043 304.052 265.66 297.438 259.795C292.396 255.329 288.271 249.578 282.882 245.573C279.581 243.117 275.742 240.879 271.7 241.34C270.413 241.494 269.165 241.887 268.016 242.498C266.945 242.035 265.8 241.773 264.637 241.726C261.352 241.62 258.336 243.44 255.517 245.192C238.936 255.481 222.095 265.312 204.995 274.684C201.544 276.579 198.073 278.457 194.777 280.626C188.347 284.873 182.649 290.178 177.916 296.325C177.045 297.452 175.946 298.733 174.563 298.563C174.184 298.504 173.82 298.371 173.49 298.172C171.361 296.992 170.055 294.711 168.827 292.547C167.935 290.96 166.972 289.304 165.666 288.097C165.386 287.346 165.014 286.635 164.557 285.981C166.396 281.346 167.982 276.6 169.454 271.822C170.221 269.314 170.962 266.79 171.941 264.356C174.356 258.335 178.206 252.88 179.568 246.509C179.895 244.969 180.087 243.387 180.341 241.832C195.238 238.837 206.483 225.249 206.483 208.931C206.483 190.412 192.005 175.407 174.143 175.407C156.282 175.407 141.809 190.412 141.809 208.931C141.793 214.568 143.166 220.118 145.801 225.072C148.436 230.025 152.248 234.222 156.888 237.276C156.888 237.34 156.888 237.403 156.888 237.461C156.857 238.525 156.755 239.586 156.582 240.636C155.986 244.181 154.51 247.514 153.022 250.747C152.038 252.911 151.053 255.086 150.032 257.245C149.543 257.144 149.067 256.981 148.618 256.758C147.742 256.261 147.359 255.171 147.027 254.208C145.559 249.795 143.763 245.504 141.654 241.371C140.831 239.615 139.785 237.977 138.545 236.498C136.358 234.054 133.363 232.604 130.466 231.138C129.948 230.884 129.466 230.609 128.969 230.366C128.538 230.039 128.088 229.741 127.621 229.472C125.212 228.08 122.538 227.08 120.528 225.133C119.02 223.672 117.983 221.773 116.574 220.223C114.227 217.646 110.988 216.175 107.843 214.773C106.205 214.043 104.485 213.297 102.697 213.397C102.445 213.41 102.194 213.438 101.946 213.482C101.516 213.557 101.09 213.656 100.671 213.778C100.263 213.557 99.8777 213.294 99.5208 212.995C97.5983 211.482 96.8522 208.884 96.2252 206.466C95.1888 202.423 94.0955 198.238 94.738 194.1C94.8499 193.386 95.0021 192.68 95.194 191.984C95.3546 191.714 95.5101 191.455 95.65 191.164C99.7755 189.898 103.545 187.643 106.644 184.588C109.743 181.533 112.083 177.766 113.467 173.6C114.852 169.435 115.242 164.992 114.604 160.642C113.966 156.292 112.32 152.16 109.801 148.591C109.537 148.221 109.283 147.861 108.988 147.501L109.299 147.327C112.164 145.538 112.817 141.263 111.491 138.078C110.164 134.892 107.345 132.644 104.49 130.876C104.076 130.617 103.656 130.374 103.231 130.13L102.868 129.929C102.547 129.749 102.231 129.575 101.91 129.4L101.531 129.204C101.153 129.009 100.775 128.823 100.396 128.644L100.225 128.559C99.7539 128.342 99.2824 128.13 98.8057 127.929C98.3445 127.733 97.8833 127.554 97.417 127.4L97.2253 127.326C96.7848 127.162 96.3392 127.009 95.8935 126.86L95.7951 126.829C92.5358 125.747 89.1379 125.162 85.7114 125.093C82.3571 125.114 79.0141 125.491 75.7365 126.22C72.5455 126.81 69.4207 127.727 66.4094 128.956C61.4325 131.109 57.0448 134.469 53.626 138.744C52.9054 138.8 52.191 138.921 51.4911 139.104C48.6878 139.829 46.1643 141.427 43.8584 143.237C41.927 144.686 40.2159 146.419 38.7803 148.38C37.0895 150.891 35.9236 153.732 35.3551 156.724C33.3913 166.105 35.806 175.772 37.5833 185.201C39.3606 194.629 40.3866 204.905 36.0288 213.365C34.3862 216.54 32.0544 219.297 30.3288 222.413C28.6033 225.53 27.4063 229.292 28.4012 232.747C29.6086 236.943 33.583 239.583 35.6557 243.393C38.0807 247.832 37.4123 253.795 34.2411 257.679C34.1012 257.848 33.9612 258.017 33.811 258.208C33.6607 258.398 33.4483 258.599 33.2513 258.779C36.521 259.954 40.1638 258.689 43.0967 256.806C45.4422 255.391 47.4314 253.436 48.9054 251.096C52.6104 244.885 50.947 236.853 52.2528 229.673C53.968 220.27 60.8908 211.884 59.9374 202.365C59.2948 195.979 55.2116 190.64 52.0041 185.148C49.872 181.461 48.085 177.578 46.6669 173.549C46.6099 173.38 46.5529 173.206 46.4907 173.02C45.5528 170.295 44.8326 167.406 45.3145 164.555C45.4788 163.631 45.7502 162.73 46.1228 161.872C46.1228 161.972 46.1228 162.078 46.1228 162.179C46.1859 164.937 46.7865 167.655 47.8898 170.174C51.1284 177.052 58.9217 180.227 63.8703 185.804C64.0776 186.037 64.2745 186.275 64.4714 186.518C64.5284 186.582 64.5802 186.65 64.632 186.719L65.0518 187.248L65.2279 187.497C65.3575 187.682 65.487 187.867 65.6062 188.058L65.7668 188.296C65.9327 188.566 66.0985 188.825 66.2539 189.116C67.5131 187.693 68.8137 186.195 69.3215 184.354C69.3682 184.195 69.3992 184.031 69.4303 183.867C69.4718 183.91 69.5081 183.957 69.5495 184.005C69.648 184.571 69.7257 185.137 69.7982 185.709C69.7982 186.525 69.8833 187.339 70.0522 188.137C70.446 193.217 70.1299 198.434 69.7982 203.529C69.6221 206.254 70.3164 210.302 68.6168 212.334L68.565 212.392C68.4653 212.51 68.3561 212.62 68.2385 212.72V212.72C67.9484 213.027 67.653 213.328 67.3784 213.646C61.6784 220.207 59.0876 229.519 59.2223 238.44C59.357 248.594 62.5334 258.43 66.1347 267.875C67.3925 271.323 68.8743 274.681 70.5703 277.928C71.4458 279.681 72.6037 281.271 73.9955 282.632C75.4515 283.949 77.2237 284.817 78.9699 285.664C79.4052 285.875 79.8457 286.082 80.2809 286.298L81.395 286.828L89.8775 290.944C91.4321 293.277 92.9348 295.674 94.453 298.077C94.6707 298.415 94.8831 298.764 95.1059 299.103C96.7641 301.749 98.4326 304.394 100.132 306.966L114.429 328.585C115.465 330.173 116.548 331.76 118.004 332.935C118.418 333.267 118.867 333.553 119.341 333.786C119.582 333.905 119.829 334.009 120.082 334.099C119.768 334.58 119.634 335.16 119.704 335.734C119.895 336.296 120.258 336.78 120.74 337.115C123.973 339.845 127.564 342.723 128.58 346.919C129.3 349.909 128.58 353.11 129.228 356.115C130.414 361.533 135.663 364.819 140.628 366.904C151.753 371.571 164.111 373.364 175.931 371.195C187.75 369.025 198.979 362.766 206.633 353.205C208.985 350.253 210.991 347.03 213.224 343.983C214.778 341.834 216.488 339.787 218.255 337.813C220.162 336.923 222 335.886 223.753 334.712C227.489 332.178 230.707 328.924 234.117 325.908C236.661 323.643 239.324 321.506 241.661 319.029C243.76 316.681 245.72 314.207 247.532 311.622C251.678 306.013 255.96 300.516 260.378 295.129C262.741 292.246 265.244 289.309 268.544 287.722L268.695 287.658C269.088 290.029 270.928 292.039 272.218 294.087C277.555 302.553 283.141 311.267 291.391 316.664C295.909 319.617 301.018 321.426 306.117 323.077C319.072 327.257 332.233 330.538 345.405 333.824C345.841 332.977 346.265 332.194 346.742 331.432C346.946 331.652 347.137 331.886 347.312 332.13C347.369 332.215 347.416 332.305 347.473 332.39C347.378 332.409 347.284 332.435 347.193 332.469C346.347 332.871 345.682 333.586 345.333 334.469C343.913 337.374 343.778 340.744 343.711 343.993C343.664 347.168 343.711 350.342 343.711 353.517C343.635 354.702 343.812 355.89 344.229 356.999C345.234 359.115 347.789 359.904 350.074 360.173C354.043 360.623 358.044 360.242 361.992 359.697C362.22 360.648 362.592 361.557 363.096 362.39C365.314 366.094 369.143 368.539 373.128 369.973C377.112 371.406 381.336 371.978 385.476 372.819C392.829 374.311 400.353 376.698 407.664 375.015C410.581 374.343 413.364 373.041 416.281 372.47C422.961 371.179 429.883 373.793 436.609 372.745C439.858 372.216 442.931 370.893 445.874 369.375C447.358 368.71 448.703 367.762 449.838 366.581C450.916 365.343 451.564 363.586 451.118 361.983C450.864 361.062 450.284 360.279 449.895 359.411C449.374 358.023 449.079 356.558 449.02 355.073C448.479 349.453 447.547 343.88 446.232 338.395C446.195 338.242 446.154 338.083 446.113 337.924C451.196 335.866 455.751 332.633 460.248 329.416L469.923 322.506C473.032 320.268 476.219 318.019 479.711 316.453C485.069 314.051 491.002 313.363 496.842 313.368C499.231 313.368 501.625 313.49 504.003 313.712C503.7 314.05 503.472 314.45 503.335 314.887C502.858 316.4 503.615 318.061 504.739 319.167C505.863 320.273 507.33 320.897 508.651 321.664C512.302 323.764 515.342 326.815 517.46 330.506C518.787 332.829 519.75 335.649 518.911 338.205C517.875 341.411 514.18 343.623 514.393 346.998C514.517 348.988 516.087 350.633 517.875 351.369C519.662 352.104 521.647 352.094 523.575 352.036C526.73 351.935 529.979 351.686 532.803 350.221C534.705 349.231 536.317 347.739 537.897 346.263C539.337 344.914 540.809 343.512 541.628 341.691C542.395 339.977 542.514 338.035 542.55 336.152C542.706 327.284 541.208 318.294 542.934 309.606C543.452 306.96 544.281 304.373 544.721 301.706C545.416 297.473 545.151 293.198 544.887 288.944C544.758 286.849 544.602 284.69 543.597 282.875Z" fill="url(#paint0_linear_132_186)"/>
<path opacity="0.06" d="M434.117 160.232C432.08 161.634 431.37 164.343 431.111 166.84C430.008 177.46 434.298 187.973 434.013 198.645C433.785 207.138 430.686 215.238 427.629 223.138C422.416 236.615 419.701 251.25 418.649 265.7C417.597 280.15 416.058 295.198 408.462 307.421C406.736 310.188 404.726 312.759 403.037 315.543C401.264 318.453 399.86 321.574 398.295 324.601C393.685 333.54 387.741 341.692 380.677 348.766C378.605 350.829 376.408 352.829 373.765 354.02C372.062 354.774 370.228 355.173 368.372 355.193C366.516 355.213 364.674 354.854 362.956 354.136C359.411 352.639 356.427 349.263 356.282 345.348C356.152 341.845 358.199 338.686 360.251 335.882C367.206 326.381 375.203 317.725 384.087 310.082C385.699 308.696 387.398 307.262 388.232 305.283C389.17 303.003 388.787 300.415 388.906 297.944C389.098 294.002 390.6 290.261 391.497 286.42C395.124 270.817 388.678 253.779 393.922 238.662C395.088 235.302 396.819 232.091 397.228 228.551C397.518 226.075 396.917 223.307 395.399 221.45C393.977 219.781 393.182 217.651 393.155 215.439C393.155 214.984 393.155 214.535 393.207 214.09C393.839 207.164 394.466 200.206 394.124 193.259C393.782 186.312 392.43 179.327 389.289 173.153C387.662 169.951 385.559 166.957 384.553 163.502C382.937 157.909 384.429 151.861 386.838 146.57C388.719 142.432 391.227 138.49 394.73 135.654C401.239 130.39 410.98 129.781 418.105 134.136C423.359 137.342 426.956 142.734 429.873 148.231C431.966 152.247 434.148 155.65 434.117 160.232Z" fill="black"/>
<path d="M416.846 118.061C415.851 120.802 414.861 123.543 413.877 126.284C413.224 128.083 412.576 129.898 411.903 131.697C408.794 139.988 405.317 148.147 399.876 155.009C400.689 153.983 393.036 148.819 387.393 145.295C384.641 143.565 382.362 142.231 381.802 141.967C380.472 141.353 379.111 140.813 377.724 140.348C375.573 139.607 373.397 138.967 371.247 138.168C366.272 136.332 369.749 133.575 371.879 130.612C378.848 120.908 380.17 107.648 388.082 98.7327C390.984 104.362 395.574 108.896 401.182 111.67C401.29 111.728 401.404 111.781 401.518 111.828C406.218 114.072 411.41 115.04 416.271 116.918C416.535 117.019 416.841 117.162 416.929 117.447C416.962 117.656 416.933 117.87 416.846 118.061Z" fill="#A1616A"/>
<path d="M403.316 314.056C401.065 317.349 399.664 321.168 399.243 325.161C398.822 329.154 399.394 333.191 400.907 336.898C401.289 337.933 401.885 338.873 402.653 339.654C403.631 340.435 404.771 340.978 405.985 341.242C416.276 344.231 427.261 343.644 437.801 341.771C441.371 341.21 444.88 340.297 448.278 339.046C453.497 337.009 458.155 333.755 462.756 330.506L472.488 323.659C475.638 321.442 478.815 319.215 482.333 317.659C487.722 315.283 493.691 314.601 499.562 314.606C504.605 314.612 509.636 315.103 514.589 316.072C517.89 316.723 521.844 317.394 524.165 314.934C525.492 313.543 525.886 311.505 526.145 309.585C527.17 302.112 527.151 294.528 526.088 287.06C526.062 286.432 525.838 285.829 525.45 285.341C525.084 285.024 524.64 284.817 524.165 284.743C519.579 283.685 514.978 285.88 510.522 287.388C501.262 290.531 491.318 290.907 481.898 293.494C472.011 296.209 462.725 301.346 452.507 302.389C447.636 302.886 442.744 302.452 437.863 302.563C433.334 302.664 429.111 304.262 424.676 304.452C416.126 304.839 408.69 306.362 403.316 314.056Z" fill="#A1616A"/>
<path opacity="0.06" d="M403.316 314.056C401.065 317.349 399.664 321.168 399.243 325.161C398.822 329.154 399.394 333.191 400.907 336.898C401.289 337.933 401.885 338.873 402.653 339.654C403.631 340.435 404.771 340.978 405.985 341.242C416.276 344.231 427.261 343.644 437.801 341.771C441.371 341.21 444.88 340.297 448.278 339.046C453.497 337.009 458.155 333.755 462.756 330.506L472.488 323.659C475.638 321.442 478.815 319.215 482.333 317.659C487.722 315.283 493.691 314.601 499.562 314.606C504.605 314.612 509.636 315.103 514.589 316.072C517.89 316.723 521.844 317.394 524.165 314.934C525.492 313.543 525.886 311.505 526.145 309.585C527.17 302.112 527.151 294.528 526.088 287.06C526.062 286.432 525.838 285.829 525.45 285.341C525.084 285.024 524.64 284.817 524.165 284.743C519.579 283.685 514.978 285.88 510.522 287.388C501.262 290.531 491.318 290.907 481.898 293.494C472.011 296.209 462.725 301.346 452.507 302.389C447.636 302.886 442.744 302.452 437.863 302.563C433.334 302.664 429.111 304.262 424.676 304.452C416.126 304.839 408.69 306.362 403.316 314.056Z" fill="black"/>
<path d="M411.68 302.87C411.436 304.04 411.219 305.278 411.561 306.421C411.985 307.545 412.701 308.529 413.633 309.267C422.442 317.32 435.029 318.987 446.797 320.294C449.983 320.649 453.227 321.003 456.383 320.416C459.259 319.887 461.943 318.59 464.591 317.31C470.291 314.553 476.022 311.765 480.908 307.712C485.701 303.743 489.546 298.664 494.51 294.923C500.153 290.69 507.091 288.267 512.128 283.282C515.77 279.695 518.19 275.011 519.035 269.917C519.605 266.441 519.419 262.89 519.035 259.388C518.626 255.361 517.968 251.266 516.092 247.7C513.921 243.572 510.273 240.456 506.423 237.895C498.277 232.487 488.686 229.133 478.96 229.218C465.487 229.339 453.051 237.345 443.382 246.334C433.154 255.856 424.877 267.353 419.027 280.161C415.725 287.415 413.26 295.035 411.68 302.87V302.87Z" fill="#464353"/>
<path opacity="0.06" d="M411.68 302.87C411.436 304.04 411.219 305.278 411.561 306.421C411.985 307.545 412.701 308.529 413.633 309.267C422.442 317.32 435.029 318.987 446.797 320.294C449.983 320.649 453.227 321.003 456.383 320.416C459.259 319.887 461.943 318.59 464.591 317.31C470.291 314.553 476.022 311.765 480.908 307.712C485.701 303.743 489.546 298.664 494.51 294.923C500.153 290.69 507.091 288.267 512.128 283.282C515.77 279.695 518.19 275.011 519.035 269.917C519.605 266.441 519.419 262.89 519.035 259.388C518.626 255.361 517.968 251.266 516.092 247.7C513.921 243.572 510.273 240.456 506.423 237.895C498.277 232.487 488.686 229.133 478.96 229.218C465.487 229.339 453.051 237.345 443.382 246.334C433.154 255.856 424.877 267.353 419.027 280.161C415.725 287.415 413.26 295.035 411.68 302.87V302.87Z" fill="black"/>
<path d="M434.117 160.232C432.08 161.634 431.37 164.343 431.111 166.84C430.008 177.46 434.298 187.973 434.013 198.645C433.785 207.138 430.686 215.238 427.629 223.138C422.416 236.615 419.701 251.25 418.649 265.7C417.597 280.15 416.058 295.198 408.462 307.421C406.736 310.188 404.726 312.759 403.037 315.543C401.264 318.453 399.86 321.574 398.295 324.601C393.685 333.54 387.741 341.692 380.677 348.766C378.605 350.829 376.408 352.829 373.765 354.02C372.062 354.774 370.228 355.173 368.372 355.193C366.516 355.213 364.674 354.854 362.956 354.136C359.411 352.639 356.427 349.263 356.282 345.348C356.152 341.845 358.199 338.686 360.251 335.882C367.206 326.381 375.203 317.725 384.087 310.082C385.699 308.696 387.398 307.262 388.232 305.283C389.17 303.003 388.787 300.415 388.906 297.944C389.098 294.002 390.6 290.261 391.497 286.42C395.124 270.817 388.678 253.779 393.922 238.662C395.088 235.302 396.819 232.091 397.228 228.551C397.518 226.075 396.917 223.307 395.399 221.45C393.977 219.781 393.182 217.651 393.155 215.439C393.155 214.984 393.155 214.535 393.207 214.09C393.839 207.164 394.466 200.206 394.124 193.259C393.782 186.312 392.43 179.327 389.289 173.153C387.662 169.951 385.559 166.957 384.553 163.502C382.937 157.909 384.429 151.861 386.838 146.57C388.719 142.432 391.227 138.49 394.73 135.654C401.239 130.39 410.98 129.781 418.105 134.136C423.359 137.342 426.956 142.734 429.873 148.231C431.966 152.247 434.148 155.65 434.117 160.232Z" fill="#A1616A"/>
<path d="M405.488 195.778C416.32 195.778 425.101 181.709 425.101 164.353C425.101 146.998 416.32 132.929 405.488 132.929C394.656 132.929 385.875 146.998 385.875 164.353C385.875 181.709 394.656 195.778 405.488 195.778Z" fill="#A1616A"/>
<path d="M355.468 328.564C356.048 329.398 356.441 330.351 356.62 331.357C356.799 332.362 356.759 333.396 356.505 334.384C358.353 335.74 360.601 336.408 362.873 336.279C365.128 336.153 367.346 335.632 369.428 334.739C371.239 334.065 372.954 333.146 374.527 332.009C377.232 329.966 379.19 327.046 380.745 324.019C381.62 322.347 382.367 320.183 381.263 318.68C380.829 318.17 380.301 317.753 379.708 317.453C375.716 315.127 371.559 313.109 367.272 311.415C366.095 310.861 364.817 310.569 363.521 310.558C361.93 310.648 360.484 311.537 359.22 312.532C356.378 314.788 354.087 317.686 352.525 320.998C352.038 322.056 350.566 324.569 351.297 325.659C351.629 326.162 352.851 326.336 353.37 326.654C354.194 327.132 354.909 327.783 355.468 328.564V328.564Z" fill="#FBBEBE"/>
<path opacity="0.03" d="M355.468 328.564C356.048 329.398 356.441 330.351 356.62 331.357C356.799 332.362 356.759 333.396 356.505 334.384C358.353 335.74 360.601 336.408 362.873 336.279C365.128 336.153 367.346 335.632 369.428 334.739C371.239 334.065 372.954 333.146 374.527 332.009C377.232 329.966 379.19 327.046 380.745 324.019C381.62 322.347 382.367 320.183 381.263 318.68C380.829 318.17 380.301 317.753 379.708 317.453C375.716 315.127 371.559 313.109 367.272 311.415C366.095 310.861 364.817 310.569 363.521 310.558C361.93 310.648 360.484 311.537 359.22 312.532C356.378 314.788 354.087 317.686 352.525 320.998C352.038 322.056 350.566 324.569 351.297 325.659C351.629 326.162 352.851 326.336 353.37 326.654C354.194 327.132 354.909 327.783 355.468 328.564V328.564Z" fill="black"/>
<path d="M376.926 316.304C385.693 317.966 393.756 322.294 402.373 324.627C405.861 325.569 409.452 326.215 412.784 327.601C416.115 328.987 419.256 331.358 420.691 334.734C421.298 336.354 421.7 338.047 421.888 339.771C422.261 342.21 422.567 344.935 421.147 346.935C419.649 349.051 416.82 349.517 414.286 349.829C405.177 350.935 396.067 352.046 386.927 352.829C385.076 352.944 383.233 353.168 381.408 353.501C379.905 353.808 378.439 354.274 376.947 354.634C375.014 355.094 373.05 355.385 371.091 355.692C366.08 356.427 361.013 357.163 355.981 356.602C353.686 356.343 351.116 355.586 350.105 353.469C349.686 352.373 349.509 351.195 349.587 350.02C349.561 346.877 349.535 343.739 349.587 340.601C349.634 337.379 349.789 334.035 351.219 331.162C351.574 330.282 352.242 329.573 353.09 329.178C353.611 329.025 354.156 328.975 354.696 329.03C357.391 329.125 360.178 329.241 362.588 330.469C364.5 331.437 366.055 333.051 368.003 333.929C371.692 335.601 376.143 334.4 379.879 335.972C380.75 333.231 380.553 330.458 379.905 327.649C379.258 324.839 378.351 322.082 378.076 319.215C378.065 318.585 377.946 317.961 377.724 317.373C377.444 316.786 377.537 316.215 376.926 316.304Z" fill="#464353"/>
<path opacity="0.06" d="M376.926 316.304C385.693 317.966 393.756 322.294 402.373 324.627C405.861 325.569 409.452 326.215 412.784 327.601C416.115 328.987 419.256 331.358 420.691 334.734C421.298 336.354 421.7 338.047 421.888 339.771C422.261 342.21 422.567 344.935 421.147 346.935C419.649 349.051 416.82 349.517 414.286 349.829C405.177 350.935 396.067 352.046 386.927 352.829C385.076 352.944 383.233 353.168 381.408 353.501C379.905 353.808 378.439 354.274 376.947 354.634C375.014 355.094 373.05 355.385 371.091 355.692C366.08 356.427 361.013 357.163 355.981 356.602C353.686 356.343 351.116 355.586 350.105 353.469C349.686 352.373 349.509 351.195 349.587 350.02C349.561 346.877 349.535 343.739 349.587 340.601C349.634 337.379 349.789 334.035 351.219 331.162C351.574 330.282 352.242 329.573 353.09 329.178C353.611 329.025 354.156 328.975 354.696 329.03C357.391 329.125 360.178 329.241 362.588 330.469C364.5 331.437 366.055 333.051 368.003 333.929C371.692 335.601 376.143 334.4 379.879 335.972C380.75 333.231 380.553 330.458 379.905 327.649C379.258 324.839 378.351 322.082 378.076 319.215C378.065 318.585 377.946 317.961 377.724 317.373C377.444 316.786 377.537 316.215 376.926 316.304Z" fill="black"/>
<path d="M84.048 226.085C82.281 225.514 80.5762 227.112 79.5865 228.731C75.4722 235.334 75.809 244.149 79.0994 251.218C79.8823 253.011 80.9621 254.652 82.2914 256.07C84.0739 257.864 86.3694 259.012 88.5095 260.303C94.4476 263.885 99.5366 268.764 103.412 274.589C105.946 278.404 107.941 282.6 110.817 286.15C117.895 294.891 129.528 298.849 136.394 307.738C138.037 309.855 139.425 312.31 141.617 313.849C142.92 314.764 144.439 315.307 146.016 315.422C147.593 315.537 149.172 315.22 150.589 314.504C152.006 313.788 153.21 312.698 154.077 311.348C154.944 309.998 155.442 308.435 155.52 306.823C158.189 302.817 160.37 298.394 162.448 294.034C165.522 287.379 168.12 280.506 170.221 273.467C170.993 270.981 171.739 268.478 172.723 266.06C175.154 260.091 179.024 254.689 180.392 248.382C180.942 245.853 181.076 243.223 181.874 240.768C182.589 238.565 183.812 236.568 185.439 234.948C190.828 229.599 193.73 221.805 198.015 215.508C199.757 212.963 201.565 210.423 202.715 207.545C203.866 204.667 204.306 201.37 203.233 198.46C202.161 195.55 199.358 193.201 196.321 193.365C194.962 193.509 193.644 193.922 192.44 194.582C188.255 196.61 184.417 199.311 181.071 202.582C179.608 204.02 178.224 205.539 176.926 207.132C170.594 214.857 165.64 224.233 165.205 234.297C165.06 237.747 165.329 241.572 163.184 244.244C157.266 251.626 155.364 261.774 150.317 269.806C147.98 273.51 145.301 277.346 141.306 279.034C140.716 279.324 140.063 279.455 139.41 279.415C137.814 279.229 136.897 277.515 136.223 276.023C133.591 270.203 130.544 264.589 127.108 259.224C125.751 257.107 124.253 254.938 122.082 253.694C120.6 252.853 118.88 252.477 117.486 251.493C115.543 250.123 114.527 247.79 113.517 245.604C110.242 238.547 106.096 231.946 101.179 225.964C98.93 223.228 95.966 220.403 92.4943 220.81C89.1883 221.207 87.1674 224.757 84.048 226.085Z" fill="#FBBEBE"/>
<path opacity="0.03" d="M84.048 226.085C82.281 225.514 80.5762 227.112 79.5865 228.731C75.4722 235.334 75.809 244.149 79.0994 251.218C79.8823 253.011 80.9621 254.652 82.2914 256.07C84.0739 257.864 86.3694 259.012 88.5095 260.303C94.4476 263.885 99.5366 268.764 103.412 274.589C105.946 278.404 107.941 282.6 110.817 286.15C117.895 294.891 129.528 298.849 136.394 307.738C138.037 309.855 139.425 312.31 141.617 313.849C142.92 314.764 144.439 315.307 146.016 315.422C147.593 315.537 149.172 315.22 150.589 314.504C152.006 313.788 153.21 312.698 154.077 311.348C154.944 309.998 155.442 308.435 155.52 306.823C158.189 302.817 160.37 298.394 162.448 294.034C165.522 287.379 168.12 280.506 170.221 273.467C170.993 270.981 171.739 268.478 172.723 266.06C175.154 260.091 179.024 254.689 180.392 248.382C180.942 245.853 181.076 243.223 181.874 240.768C182.589 238.565 183.812 236.568 185.439 234.948C190.828 229.599 193.73 221.805 198.015 215.508C199.757 212.963 201.565 210.423 202.715 207.545C203.866 204.667 204.306 201.37 203.233 198.46C202.161 195.55 199.358 193.201 196.321 193.365C194.962 193.509 193.644 193.922 192.44 194.582C188.255 196.61 184.417 199.311 181.071 202.582C179.608 204.02 178.224 205.539 176.926 207.132C170.594 214.857 165.64 224.233 165.205 234.297C165.06 237.747 165.329 241.572 163.184 244.244C157.266 251.626 155.364 261.774 150.317 269.806C147.98 273.51 145.301 277.346 141.306 279.034C140.716 279.324 140.063 279.455 139.41 279.415C137.814 279.229 136.897 277.515 136.223 276.023C133.591 270.203 130.544 264.589 127.108 259.224C125.751 257.107 124.253 254.938 122.082 253.694C120.6 252.853 118.88 252.477 117.486 251.493C115.543 250.123 114.527 247.79 113.517 245.604C110.242 238.547 106.096 231.946 101.179 225.964C98.93 223.228 95.966 220.403 92.4943 220.81C89.1883 221.207 87.1674 224.757 84.048 226.085Z" fill="black"/>
<path d="M83.6852 200.804C91.2289 200.804 97.3443 195.168 97.3443 188.217C97.3443 181.265 91.2289 175.629 83.6852 175.629C76.1415 175.629 70.0261 181.265 70.0261 188.217C70.0261 195.168 76.1415 200.804 83.6852 200.804Z" fill="#FBBEBE"/>
<path d="M96.4946 190.65C99.2105 190.65 101.412 188.402 101.412 185.629C101.412 182.856 99.2105 180.608 96.4946 180.608C93.7788 180.608 91.5771 182.856 91.5771 185.629C91.5771 188.402 93.7788 190.65 96.4946 190.65Z" fill="#FBBEBE"/>
<path d="M85.4782 188.217C95.8694 188.217 104.293 185.916 104.293 183.079C104.293 180.241 95.8694 177.941 85.4782 177.941C75.0869 177.941 66.6632 180.241 66.6632 183.079C66.6632 185.916 75.0869 188.217 85.4782 188.217Z" fill="#FBBEBE"/>
<path d="M68.6997 181.984C69.1574 183.465 69.5175 184.977 69.7775 186.507C68.1977 184.87 66.829 183.033 65.7046 181.042C65.4015 180.698 65.1579 180.305 64.9843 179.878C63.3055 175.888 62.1603 171.851 62.1603 167.481C62.1599 162.413 63.5471 157.446 66.1652 153.142C68.7834 148.837 72.5282 145.365 76.9766 143.119C81.4251 140.873 86.4 139.941 91.3396 140.43C96.2791 140.918 100.987 142.807 104.93 145.884C108.874 148.96 111.896 153.101 113.657 157.839C115.417 162.577 115.845 167.723 114.892 172.696C113.939 177.669 111.644 182.271 108.265 185.982C104.885 189.694 100.557 192.366 95.7691 193.698C96.5827 191.021 97.6967 188.407 97.8418 185.629C97.9292 184.703 97.7978 183.768 97.4584 182.904C97.0036 181.985 96.3323 181.196 95.5049 180.608C92.5409 178.296 88.7271 177.285 84.9963 177.348C81.2611 177.507 77.5916 178.405 74.1923 179.994C73.1197 180.465 71.8346 181.1 70.5651 181.534C69.9598 181.748 69.3348 181.899 68.6997 181.984V181.984Z" fill="#FBBEBE"/>
<path d="M136.192 241.445C134.487 244.234 130.844 245.086 127.642 244.837C121.673 244.387 116.242 241.133 111.631 237.218C107.019 233.302 102.987 228.752 98.272 224.985C89.4993 217.963 79.6177 215.143 68.4562 214.979C70.6377 213.133 69.8345 208.751 70.0107 205.873C70.3942 200.053 70.7569 194.079 70.0107 188.344C69.933 187.724 69.8449 187.116 69.7412 186.507C69.9174 186.698 70.104 186.883 70.2957 187.074C73.6149 190.326 77.7022 192.646 82.1599 193.807C86.6175 194.968 91.2936 194.93 95.7329 193.698C95.4474 194.62 95.2241 195.56 95.0645 196.513C94.4219 200.603 95.4997 204.751 96.562 208.757C97.1942 211.154 97.9455 213.725 99.8783 215.223C101.132 216.196 102.713 216.577 104.2 217.09C107.164 218.122 109.901 219.74 112.252 221.852C113.89 223.318 115.361 225.027 117.118 226.302C118.789 227.381 120.548 228.309 122.377 229.075C126.866 231.19 131.108 233.815 135.021 236.9C135.759 237.371 136.334 238.067 136.664 238.89C136.76 239.326 136.768 239.778 136.687 240.218C136.606 240.657 136.438 241.075 136.192 241.445V241.445Z" fill="#FBBEBE"/>
<path d="M166.801 292.711C166.443 295.124 164.277 297.008 162.748 298.881C158.593 304.003 154.38 309.14 149.732 313.828C144.757 318.839 139.296 323.305 133.84 327.77L126.761 333.554C125.888 334.369 124.865 334.998 123.751 335.406C122.446 335.738 121.067 335.57 119.875 334.935C119.4 334.703 118.95 334.421 118.533 334.093C117.066 332.929 115.988 331.342 114.936 329.781C110.149 322.645 105.355 315.507 100.557 308.368C98.8471 305.817 97.1682 303.198 95.4997 300.579C95.2769 300.241 95.0644 299.897 94.8416 299.558C93.3182 297.177 91.7999 294.796 90.2402 292.494L81.7111 288.415L80.5918 287.886L79.2705 287.256C77.5139 286.415 75.7313 285.558 74.2701 284.256C72.8708 282.913 71.7056 281.337 70.8242 279.595C69.1175 276.373 67.6252 273.037 66.3575 269.61C62.7303 260.261 59.5384 250.514 59.4036 240.451C59.2844 231.599 61.8442 222.392 67.6063 215.894C68.394 215 69.2406 214.162 70.1402 213.386C71.2491 212.439 72.3943 211.884 73.8193 212.09C75.2442 212.297 76.5967 212.508 77.9647 212.746C81.737 213.409 85.4799 214.221 89.1935 215.18C92.5409 216.053 96.0075 217.048 99.3912 216.355C99.9353 216.244 100.474 216.085 101.013 215.942C101.454 215.826 101.889 215.715 102.34 215.641C102.59 215.596 102.843 215.568 103.096 215.556C104.894 215.461 106.62 216.196 108.278 216.921C111.444 218.307 114.703 219.768 117.087 222.318C118.507 223.852 119.548 225.736 121.061 227.18C123.082 229.112 125.777 230.101 128.202 231.482C128.67 231.748 129.122 232.043 129.554 232.366C130.511 233.098 131.38 233.941 132.145 234.879V234.879C135.285 238.662 137.151 243.768 140.617 247.53C143.392 250.536 145.803 253.87 147.799 257.462C148.126 258.06 148.442 258.663 148.753 259.277C149.271 260.298 149.753 261.335 150.198 262.382C150.312 262.652 150.426 262.912 150.53 263.192C151.182 264.777 151.751 266.397 152.235 268.044C153.411 272.039 154.193 276.351 156.805 279.558C158.629 281.785 161.158 283.261 163.287 285.182C164.659 286.368 165.738 287.867 166.438 289.558C166.822 290.56 166.947 291.646 166.801 292.711Z" fill="#FBBEBE"/>
<path opacity="0.06" d="M152.375 260.933C151.78 261.698 151.171 262.453 150.545 263.197C150.442 263.335 150.328 263.467 150.214 263.599C144.759 270.115 138.515 275.895 131.632 280.801C127.373 283.838 122.88 286.531 118.398 289.219L110.107 294.177C106.64 296.256 103.127 298.352 99.2824 299.547C98.0491 299.923 96.7589 300.225 95.4997 300.579C95.2769 300.241 95.0644 299.897 94.8416 299.558C93.3182 297.177 91.7999 294.796 90.2402 292.494L81.7111 288.415C86.4214 285.375 90.6003 281.551 94.0747 277.102C99.2565 270.578 103.241 263.139 107.169 255.747C107.865 254.554 108.407 253.273 108.781 251.938C109.299 249.721 108.863 247.393 108.226 245.213C105.893 237.397 100.987 230.643 94.339 226.096C89.6754 222.921 84.3693 220.99 79.0943 219.127C75.4101 217.826 71.3735 216.566 67.6271 217.101C68.4134 216.207 69.2601 215.371 70.161 214.598C71.2698 213.646 72.415 213.09 73.84 213.297C75.265 213.503 76.6174 213.715 77.9854 213.958C80.7576 214.826 83.4832 215.863 86.1933 216.932C87.9761 217.599 89.7081 218.4 91.375 219.328C93.0343 220.363 94.6282 221.503 96.1474 222.741C100.64 226.239 105.371 229.405 110.304 232.218C116.004 235.429 121.989 238.038 127.969 240.684C128.603 241.016 129.303 241.197 130.015 241.213C130.372 241.212 130.719 241.09 131.001 240.866C131.282 240.642 131.482 240.328 131.57 239.974C131.594 239.589 131.507 239.205 131.321 238.869C130.285 236.705 127.932 235.615 125.803 234.562C116.963 230.191 109.19 223.9 101.5 217.656C101.313 217.505 101.149 217.327 101.013 217.127L102.34 216.826C110.945 223.137 120.034 228.732 129.518 233.556C130.019 233.817 130.521 234.071 131.026 234.318C131.389 234.503 131.746 234.683 132.114 234.847C134.669 236.128 137.223 237.493 139.146 239.609C140.385 241.069 141.431 242.69 142.255 244.43C144.373 248.515 146.181 252.761 147.664 257.128C147.693 257.222 147.725 257.314 147.763 257.404C147.951 258.071 148.276 258.689 148.716 259.218C148.871 259.396 149.056 259.544 149.26 259.658C150.235 260.245 151.571 260.181 152.375 260.933Z" fill="black"/>
<path d="M102.36 215.641C110.965 221.952 120.054 227.545 129.539 232.366L131.047 233.133C133.948 234.583 136.969 236.022 139.172 238.424C140.41 239.887 141.456 241.509 142.281 243.25C144.4 247.334 146.207 251.58 147.685 255.948C148.017 256.917 148.405 257.98 149.286 258.478C150.167 258.975 151.566 258.938 152.349 259.689C151.644 260.589 150.929 261.478 150.188 262.335C144.735 268.853 138.491 274.635 131.606 279.542C127.347 282.579 122.854 285.272 118.372 287.96L110.081 292.918C106.615 294.992 103.101 297.087 99.2565 298.283C97.8108 298.733 96.2822 299.071 94.8157 299.505C93.2923 297.124 91.774 294.743 90.2143 292.441L80.5659 287.828C85.7477 284.833 90.2661 280.573 94.0385 275.838C99.2202 269.319 103.205 261.88 107.133 254.488C107.828 253.294 108.37 252.014 108.744 250.678C109.262 248.461 108.827 246.128 108.19 243.948C105.855 236.157 100.964 229.425 94.339 224.884C89.6754 221.709 84.3693 219.783 79.0943 217.916C75.4101 216.619 71.3735 215.355 67.6271 215.894C68.4147 215 69.2613 214.162 70.161 213.386C71.2698 212.439 72.415 211.884 73.84 212.09C75.265 212.297 76.6174 212.508 77.9854 212.746C80.7576 213.619 83.4832 214.656 86.1933 215.725C87.977 216.39 89.7092 217.191 91.375 218.122C93.0343 219.156 94.6282 220.296 96.1474 221.535C100.648 225.024 105.386 228.182 110.325 230.985C116.025 234.202 122.01 236.832 127.989 239.451C128.623 239.784 129.323 239.965 130.036 239.98C130.394 239.981 130.741 239.86 131.023 239.635C131.305 239.411 131.505 239.096 131.591 238.742C131.614 238.358 131.527 237.976 131.342 237.641C130.306 235.477 127.953 234.382 125.823 233.334C116.983 228.964 109.211 222.667 101.521 216.402C101.333 216.253 101.168 216.074 101.034 215.873L102.36 215.641Z" fill="#00A69F"/>
<path d="M174.962 244.366C192.925 244.366 207.488 229.496 207.488 211.154C207.488 192.811 192.925 177.941 174.962 177.941C156.998 177.941 142.436 192.811 142.436 211.154C142.436 229.496 156.998 244.366 174.962 244.366Z" fill="#00A69F"/>
<path d="M207.301 343.337C213.39 341.384 219.572 339.395 224.919 335.823C228.676 333.315 231.914 330.088 235.324 327.104C237.889 324.86 240.563 322.744 242.915 320.268C245.023 317.95 246.995 315.509 248.823 312.955C252.982 307.396 257.277 301.943 261.71 296.595C264.088 293.743 266.601 290.838 269.923 289.251C275.825 286.42 282.753 288.33 288.981 290.272C298.308 293.182 307.589 296.267 316.315 300.696C321.279 303.219 326.088 306.034 331.098 308.452C340.26 312.87 349.986 315.902 359.676 318.918C360.396 319.231 361.196 319.298 361.956 319.109C362.499 318.854 362.966 318.456 363.308 317.955C364.572 316.362 365.584 314.576 366.308 312.664C366.446 312.447 366.498 312.184 366.453 311.93C366.408 311.675 366.269 311.448 366.065 311.294C361.919 307.172 356.541 304.638 351.514 301.701C347.514 299.368 343.685 296.748 339.861 294.129C336.187 291.616 332.482 289.076 329.399 285.843C327.844 284.208 326.445 282.404 324.761 280.912C323.273 279.669 321.697 278.541 320.046 277.536C312.659 272.72 305.609 267.386 298.946 261.573C293.878 257.15 289.727 251.451 284.312 247.483C280.991 245.049 277.125 242.832 273.063 243.276C268.119 243.805 264.471 248.038 261.026 251.689C249.444 263.97 234.832 272.758 221.909 283.558C211.358 292.362 201.498 302.823 188.647 307.468C189.222 309.415 189.424 311.363 190.004 313.289C190.728 315.966 191.63 318.589 192.704 321.141C193.77 323.4 194.969 325.591 196.295 327.702L201.446 336.289C202.482 338.035 203.565 339.808 205.047 341.194C205.824 341.956 207.301 342.231 207.301 343.337Z" fill="#464353"/>
<path opacity="0.06" d="M207.301 343.337C213.39 341.384 219.572 339.395 224.919 335.823C228.676 333.315 231.914 330.088 235.324 327.104C237.889 324.86 240.563 322.744 242.915 320.268C245.023 317.95 246.995 315.509 248.823 312.955C252.982 307.396 257.277 301.943 261.71 296.595C264.088 293.743 266.601 290.838 269.923 289.251C275.825 286.42 282.753 288.33 288.981 290.272C298.308 293.182 307.589 296.267 316.315 300.696C321.279 303.219 326.088 306.034 331.098 308.452C340.26 312.87 349.986 315.902 359.676 318.918C360.396 319.231 361.196 319.298 361.956 319.109C362.499 318.854 362.966 318.456 363.308 317.955C364.572 316.362 365.584 314.576 366.308 312.664C366.446 312.447 366.498 312.184 366.453 311.93C366.408 311.675 366.269 311.448 366.065 311.294C361.919 307.172 356.541 304.638 351.514 301.701C347.514 299.368 343.685 296.748 339.861 294.129C336.187 291.616 332.482 289.076 329.399 285.843C327.844 284.208 326.445 282.404 324.761 280.912C323.273 279.669 321.697 278.541 320.046 277.536C312.659 272.72 305.609 267.386 298.946 261.573C293.878 257.15 289.727 251.451 284.312 247.483C280.991 245.049 277.125 242.832 273.063 243.276C268.119 243.805 264.471 248.038 261.026 251.689C249.444 263.97 234.832 272.758 221.909 283.558C211.358 292.362 201.498 302.823 188.647 307.468C189.222 309.415 189.424 311.363 190.004 313.289C190.728 315.966 191.63 318.589 192.704 321.141C193.77 323.4 194.969 325.591 196.295 327.702L201.446 336.289C202.482 338.035 203.565 339.808 205.047 341.194C205.824 341.956 207.301 342.231 207.301 343.337Z" fill="black"/>
<path d="M349.157 333.257C349.735 334.091 350.128 335.045 350.307 336.05C350.486 337.056 350.447 338.089 350.193 339.078C352.035 340.437 354.277 341.111 356.546 340.988C358.806 340.86 361.027 340.341 363.116 339.453C364.927 338.777 366.641 337.859 368.215 336.723C370.925 334.681 372.879 331.76 374.459 328.728C375.335 327.061 376.081 324.897 374.952 323.395C374.52 322.882 373.991 322.464 373.397 322.167C369.413 319.843 365.264 317.825 360.987 316.13C359.809 315.577 358.531 315.283 357.235 315.267C355.639 315.357 354.193 316.252 352.929 317.246C350.089 319.503 347.8 322.401 346.239 325.712C345.752 326.77 344.281 329.289 345.006 330.379C345.338 330.882 346.561 331.056 347.079 331.368C347.893 331.843 348.601 332.486 349.157 333.257V333.257Z" fill="#FBBEBE"/>
<path d="M372.884 320.738C381.652 322.405 389.714 326.728 398.332 329.061C401.819 330.003 405.41 330.649 408.742 332.035C412.074 333.421 415.214 335.792 416.649 339.168C417.255 340.788 417.658 342.481 417.846 344.205C418.219 346.644 418.525 349.369 417.105 351.369C415.608 353.485 412.778 353.956 410.244 354.263C401.135 355.374 392.025 356.48 382.885 357.263C381.038 357.381 379.199 357.605 377.377 357.935C375.874 358.247 374.407 358.708 372.915 359.068C370.988 359.533 369.018 359.819 367.06 360.126C362.049 360.856 356.981 361.597 351.95 361.031C349.654 360.771 347.084 360.015 346.074 357.898C345.654 356.801 345.477 355.623 345.556 354.448C345.556 351.311 345.504 348.168 345.556 345.03C345.602 341.808 345.758 338.464 347.188 335.591C347.544 334.712 348.212 334.003 349.058 333.607C349.58 333.454 350.125 333.404 350.665 333.458C353.359 333.554 356.147 333.67 358.557 334.898C360.469 335.866 361.847 332.972 363.795 333.839C367.49 335.506 364.987 330.453 368.718 332.024C369.588 329.284 373.288 330.913 372.646 328.104C372.003 325.294 374.309 326.516 374.045 323.627C374.033 322.997 373.914 322.374 373.692 321.786C373.402 321.22 373.495 320.649 372.884 320.738Z" fill="#464353"/>
<path opacity="0.06" d="M110.252 151.448C108.242 152.644 105.749 152.422 103.407 152.369C101.359 152.326 99.3101 152.434 97.2771 152.692C96.545 152.744 95.8293 152.938 95.1681 153.263C94.3071 153.83 93.6265 154.641 93.2094 155.597C92.3802 157.223 91.8215 158.979 91.5564 160.793C91.2662 162.83 91.2973 165.057 90.0537 166.671C88.3593 168.867 85.7166 168.528 83.3174 168.962C81.2294 169.371 79.2282 170.152 77.4051 171.269C75.6074 172.377 74.0648 173.869 72.8827 175.641C71.7005 177.413 70.9065 179.425 70.5548 181.539C70.4874 182.021 70.4408 182.497 70.42 182.978C70.3682 184.343 70.503 185.735 70.3268 187.074C70.2841 187.408 70.2183 187.738 70.1299 188.063C70.1069 188.159 70.0775 188.252 70.0418 188.344C69.9641 187.724 69.876 187.116 69.7723 186.508C68.1926 184.87 66.8239 183.033 65.6995 181.042C65.3964 180.698 65.1528 180.305 64.9792 179.878C63.3003 175.888 62.1552 171.851 62.1552 167.481C62.1548 161.749 63.9295 156.164 67.2254 151.525C70.5213 146.885 75.1696 143.429 80.5055 141.65C85.8414 139.872 91.5914 139.861 96.9333 141.621C102.275 143.381 106.935 146.821 110.247 151.448H110.252Z" fill="black"/>
<path d="M111.957 141.035C110.625 137.887 107.811 135.654 104.92 133.903C99.2201 130.432 92.66 128.252 86.0067 128.162C82.6497 128.163 79.3019 128.518 76.0162 129.22C72.8144 129.805 69.6778 130.714 66.6528 131.935C61.6616 134.054 57.2496 137.381 53.7969 141.628C53.0716 141.684 52.3522 141.803 51.6465 141.983C48.8276 142.702 46.2885 144.284 43.9723 146.078C42.0339 147.512 40.3125 149.228 38.8631 151.173C37.1668 153.657 35.9934 156.473 35.4172 159.443C33.443 168.735 35.8732 178.322 37.6557 187.65C39.4383 196.979 40.4798 207.169 36.1012 215.551C34.4482 218.725 32.1009 221.424 30.3391 224.514C28.5773 227.604 27.4062 231.323 28.4063 234.752C29.5981 238.922 33.6088 241.567 35.7022 245.319C36.9843 247.773 37.4419 250.589 37.0047 253.334C36.5676 256.079 35.2598 258.602 33.2823 260.515C36.5727 261.679 40.2362 260.425 43.2002 258.562C45.5502 257.165 47.5496 255.229 49.04 252.906C52.7657 246.747 51.1127 238.795 52.4082 231.678C54.1337 222.366 61.098 214.058 60.1394 204.63C59.4916 198.28 55.3877 193.016 52.1595 187.571C50.0061 183.94 48.1964 180.108 46.7549 176.126C45.7185 173.285 44.8791 170.232 45.3921 167.248C45.5618 166.337 45.8349 165.449 46.2056 164.602C46.2056 164.703 46.2056 164.803 46.2056 164.904C46.2647 167.644 46.8676 170.344 47.9778 172.84C51.833 180.883 62.0981 183.846 66.4456 191.619C67.7151 190.206 69.0364 188.724 69.5546 186.883C70.0106 185.243 69.7774 183.497 69.8448 181.793C70.0261 177.031 72.8606 172.544 76.8298 170.089C78.6515 168.97 80.6534 168.191 82.7422 167.787C85.1361 167.348 87.7788 167.682 89.4784 165.486C90.7221 163.898 90.691 161.644 90.9863 159.613C91.249 157.797 91.8077 156.039 92.6393 154.411C93.055 153.456 93.736 152.647 94.598 152.083C95.26 151.755 95.9779 151.561 96.7122 151.512C98.7435 151.254 100.79 151.146 102.837 151.189C105.205 151.247 107.739 151.464 109.77 150.221C112.631 148.443 113.289 144.21 111.957 141.035Z" fill="#464353"/>
<path opacity="0.06" d="M401.518 111.828C401.518 111.902 401.518 111.971 401.518 112.045C400.581 120.299 392.808 119.918 390.994 132.924C390.279 138.019 382.704 138.961 377.724 140.332C375.573 139.591 373.397 138.951 371.247 138.152C366.272 136.316 369.749 133.559 371.879 130.596C378.848 120.892 380.17 107.632 388.082 98.7169C390.984 104.347 395.575 108.88 401.182 111.654C401.29 111.728 401.404 111.781 401.518 111.828Z" fill="black"/>
<path d="M401.7 107.093C401.699 108.344 401.63 109.595 401.492 110.839C400.538 119.43 396.34 127.302 389.792 132.783C383.243 138.263 374.859 140.92 366.422 140.189C357.985 139.457 350.16 135.395 344.61 128.866C339.06 122.336 336.222 113.854 336.7 105.222C337.177 96.5897 340.933 88.4879 347.168 82.6383C353.403 76.7887 361.626 73.6524 370.09 73.896C378.554 74.1396 386.591 77.7439 392.494 83.9428C398.397 90.1418 401.699 98.4467 401.7 107.093V107.093Z" fill="#A1616A"/>
<path d="M414.784 110.807C418.509 110.622 422.09 112.114 425.531 113.58C439.174 119.4 452.932 125.268 465.124 133.813C471.135 138.046 476.706 142.85 482.266 147.671L505.112 167.491C509.501 171.295 513.921 175.137 517.445 179.793C519.519 182.665 521.41 185.669 523.108 188.788L526.497 194.688C527.885 196.997 529.098 199.411 530.124 201.91C531.865 206.466 532.513 211.778 536.026 215.106C538.384 217.344 541.633 218.254 544.514 219.731C547.395 221.207 550.214 223.799 550.167 227.091C550.167 229.207 548.913 231.112 547.97 233.017C546.017 236.997 545.198 241.458 545.607 245.89L508.247 216.736C506.76 215.577 505.205 214.381 503.376 213.99C501.003 213.461 498.583 214.376 496.293 215.201C478.237 221.703 459.05 224.279 439.962 222.762C431.521 222.085 422.95 220.535 415.561 216.318C411.473 213.99 407.856 210.905 404.265 207.852C399.783 204.021 395.285 200.18 391.31 195.799C390.274 194.629 389.196 193.344 388.932 191.777C388.735 190.645 388.979 189.492 389.072 188.349C389.725 180.322 383.196 173.639 381.206 165.846C380.322 162.171 380.444 158.318 381.56 154.709C382.676 151.101 384.742 147.875 387.533 145.385C391.984 149.364 391.823 156.353 391.305 162.369C390.606 170.47 392.823 174.486 392.124 182.592C394.943 182.486 394.43 184.338 395.632 181.73C396.834 179.121 397.067 176.179 397.295 173.306C398.128 162.914 399.138 152.54 400.327 142.184C400.917 137.004 401.591 131.834 402.239 126.659C402.632 123.511 402.581 120.569 404.208 117.776C406.467 113.908 410.307 111.024 414.784 110.807Z" fill="#00A69F"/>
<path d="M419.66 120.247C422.033 119.485 424.588 120.183 426.971 120.908C431.186 122.185 435.376 123.534 439.542 124.956C442.947 126.114 446.398 127.358 449.279 129.543C452.268 131.808 454.46 134.956 456.632 138.051C458.186 140.279 459.741 142.533 460.777 145.062C462.124 148.374 462.487 152.004 462.85 155.57C463.087 157.109 463.068 158.678 462.793 160.211C462.306 161.874 461.449 163.401 460.29 164.671C458.506 166.827 456.438 168.72 454.144 170.295C448.045 174.486 440.672 176.232 433.49 177.772C427.08 179.142 420.624 180.417 414.084 180.83C411.54 180.994 408.586 180.83 407.032 178.777C406.589 178.137 406.24 177.435 405.995 176.692C402.175 166.359 400.52 155.322 401.14 144.295C401.196 142.285 401.501 140.29 402.047 138.358C402.585 136.812 403.252 135.316 404.042 133.887C406.006 130.093 408.073 126.167 411.457 123.628C414.996 120.982 419.582 120.146 423.971 120.315" fill="#A1616A"/>
<path opacity="0.06" d="M443.532 159.486C441.496 160.888 440.786 163.597 440.527 166.094C439.423 176.714 443.713 187.227 443.428 197.899C443.2 206.365 440.102 214.492 437.044 222.392C431.832 235.869 429.116 250.504 428.064 264.954C427.013 279.404 425.474 294.452 417.877 306.675C416.152 309.442 414.141 312.013 412.452 314.797C410.68 317.707 409.275 320.828 407.711 323.855C403.1 332.794 397.156 340.946 390.093 348.02C388.02 350.083 385.823 352.083 383.18 353.274C381.477 354.028 379.643 354.427 377.787 354.447C375.931 354.467 374.089 354.108 372.371 353.39C368.827 351.893 365.842 348.517 365.697 344.602C365.567 341.099 367.614 337.94 369.666 335.136C376.621 325.635 384.618 316.979 393.502 309.336C395.114 307.95 396.813 306.516 397.648 304.537C398.585 302.257 398.202 299.669 398.321 297.198C398.513 293.256 400.016 289.515 400.912 285.674C404.539 270.071 398.093 253.033 403.337 237.916C404.503 234.556 406.234 231.345 406.643 227.805C406.933 225.329 406.327 222.561 404.814 220.704C403.393 219.035 402.596 216.905 402.565 214.693C402.565 214.238 402.565 213.789 402.622 213.344C403.254 206.418 403.881 199.46 403.539 192.513C403.197 185.566 401.845 178.581 398.705 172.407C397.078 169.205 394.974 166.211 393.969 162.756C392.352 157.163 393.844 151.115 396.254 145.824C398.135 141.686 400.643 137.744 404.145 134.908C410.654 129.644 420.395 129.035 427.52 133.39C432.775 136.596 436.371 141.988 439.288 147.485C441.382 151.501 443.589 154.903 443.532 159.486Z" fill="black"/>
<path d="M444.713 159.486C442.677 160.888 441.967 163.597 441.708 166.094C440.604 176.714 444.895 187.227 444.61 197.899C444.382 206.365 441.283 214.492 438.226 222.392C433.013 235.869 430.303 250.504 429.246 264.954C428.189 279.404 426.655 294.452 419.059 306.675C417.333 309.442 415.328 312.013 413.633 314.797C411.866 317.707 410.457 320.828 408.892 323.855C404.28 332.793 398.336 340.945 391.274 348.02C389.201 350.083 386.999 352.083 384.356 353.274C382.653 354.028 380.82 354.427 378.963 354.447C377.107 354.467 375.266 354.108 373.547 353.39C370.008 351.893 367.023 348.517 366.878 344.602C366.744 341.099 368.79 337.94 370.848 335.136C377.802 325.635 385.8 316.978 394.684 309.336C396.295 307.95 398 306.516 398.829 304.537C399.772 302.257 399.383 299.669 399.503 297.198C399.694 293.256 401.197 289.515 402.094 285.674C405.721 270.071 399.275 253.033 404.519 237.916C405.685 234.556 407.42 231.345 407.83 227.805C408.115 225.329 407.514 222.561 406.001 220.704C404.553 219.046 403.733 216.914 403.69 214.693C403.69 214.238 403.69 213.789 403.747 213.344C404.374 206.418 405.001 199.46 404.659 192.513C404.317 185.566 402.964 178.581 399.824 172.407C398.197 169.205 396.093 166.211 395.088 162.756C393.471 157.163 394.963 151.115 397.373 145.824C399.259 141.686 401.762 137.744 405.265 134.908C411.773 129.644 421.515 129.035 428.64 133.39C433.894 136.596 437.49 141.988 440.407 147.485C442.553 151.501 444.75 154.903 444.713 159.486Z" fill="#A1616A"/>
<path d="M497.117 297.653L496.671 297.792Z" fill="#464353"/>
<path d="M406.358 321.262C406.377 321.084 406.408 320.907 406.451 320.733Z" fill="#464353"/>
<path d="M517.455 284.954C518.947 283.193 521.248 282.404 523.461 281.817C527.026 280.876 530.668 280.27 534.342 280.007C536.623 279.757 538.928 279.901 541.161 280.436C543.369 281.055 545.462 282.399 546.582 284.436C547.571 286.235 547.727 288.373 547.856 290.431C548.126 294.664 548.374 298.897 547.69 303.066C547.25 305.712 546.426 308.273 545.892 310.897C544.162 319.5 545.664 328.405 545.509 337.189C545.473 339.062 545.353 340.982 544.581 342.681C543.757 344.485 542.275 345.856 540.83 347.21C539.239 348.676 537.622 350.152 535.705 351.131C532.865 352.586 529.596 352.829 526.419 352.93C524.486 352.988 522.497 352.993 520.719 352.268C518.942 351.543 517.341 349.914 517.211 347.94C517.004 344.591 520.704 342.4 521.761 339.226C522.6 336.697 521.637 333.903 520.3 331.601C518.156 327.932 515.096 324.91 511.434 322.844C510.076 322.082 508.63 321.442 507.501 320.368C506.371 319.294 505.604 317.627 506.086 316.135C506.661 314.331 508.718 313.49 510.568 313.31C512.418 313.13 514.372 313.267 516.035 312.426C517.517 311.68 518.548 310.241 519.258 308.722C520.769 305.481 520.979 301.765 519.844 298.367C519.394 297.075 518.743 295.866 517.916 294.785C517.139 293.77 515.543 292.912 514.988 291.801C514.004 289.801 516.133 286.542 517.455 284.954Z" fill="#00A69F"/>
<path opacity="0.06" d="M487.344 208.275C478.783 200.55 466.85 198.45 455.657 196.106C449.892 194.903 444.154 193.562 438.444 192.084C434.692 191.111 430.93 190.074 427.044 189.804C423.157 189.534 419.157 190.09 415.83 192.111C412.504 194.132 409.996 197.793 409.975 201.746C409.975 203.333 410.343 204.889 410.229 206.46C410.047 208.99 408.674 211.222 407.736 213.588C406.302 217.326 406.082 221.437 407.109 225.313C408.768 231.487 413.545 236.927 413.131 243.303C412.441 253.975 412.654 265.129 414.799 275.579C416.944 286.029 419.623 296.526 419.561 307.22C419.499 317.913 416.328 329.157 408.509 336.279C413.806 341.358 420.286 344.973 427.334 346.781C433.36 348.321 440.527 348.168 444.817 343.58C445.812 342.522 446.636 341.109 446.429 339.654C446.215 338.736 445.837 337.866 445.315 337.088C442.366 331.696 442.724 325.051 444.029 319.029C445.335 313.008 447.569 307.156 448.133 301.008C448.548 296.547 448.082 292.013 448.916 287.611C449.558 284.24 450.947 281.065 451.781 277.737C454.243 267.864 451.657 257.499 449.087 247.663C451.237 252.716 455.305 256.657 459.512 260.086C465.896 265.282 473.617 269.869 481.732 268.949C488.955 268.123 495.106 262.996 499.35 256.98C499.386 250.022 501.749 243.445 501.329 236.503C501.058 233.454 500.524 230.435 499.733 227.482C498.94 224.18 498.127 220.847 496.624 217.815C494.64 213.789 490.65 211.254 487.344 208.275Z" fill="black"/>
<path d="M489.116 208.275C480.556 200.55 468.627 198.45 457.43 196.106C451.664 194.903 445.928 193.562 440.221 192.084C436.469 191.111 432.702 190.074 428.821 189.804C424.94 189.534 420.94 190.09 417.613 192.111C414.286 194.132 411.773 197.793 411.758 201.746C411.758 203.333 412.12 204.889 412.006 206.46C411.83 208.99 410.426 211.222 409.514 213.588C408.081 217.327 407.863 221.437 408.892 225.313C410.545 231.487 415.323 236.927 414.913 243.303C414.219 253.975 414.431 265.129 416.577 275.579C418.722 286.029 421.401 296.526 421.339 307.22C421.276 317.913 418.085 329.12 410.26 336.231C415.559 341.309 422.038 344.924 429.085 346.734C435.112 348.274 442.283 348.12 446.569 343.533C447.563 342.475 448.387 341.062 448.18 339.607C447.966 338.689 447.589 337.819 447.066 337.041C444.118 331.649 444.475 325.003 445.781 318.982C447.087 312.961 449.32 307.109 449.89 300.96C450.299 296.5 449.833 291.965 450.673 287.563C451.31 284.193 452.704 281.018 453.533 277.69C455.994 267.816 453.414 257.451 450.838 247.615C452.989 252.668 457.056 256.61 461.269 260.038C467.653 265.234 475.369 269.822 483.483 268.901C490.707 268.076 496.858 262.949 501.101 256.933C501.132 249.975 503.495 243.398 503.076 236.456C502.805 233.407 502.271 230.388 501.48 227.434C500.692 224.133 499.873 220.799 498.371 217.768C496.443 213.789 492.422 211.254 489.116 208.275Z" fill="#A1616A"/>
<path d="M429.65 341.797C425.849 339.433 422.566 336.293 420.007 332.575C419.085 331.241 418.255 329.823 417.105 328.691C415.955 327.559 414.395 326.717 412.804 326.887C411.006 327.077 409.566 328.474 408.426 329.913C405.368 333.781 403.399 338.511 400.005 342.083C396.088 346.215 390.621 348.432 385.165 349.85C379.708 351.268 374.076 352.014 368.728 353.808C367.049 354.369 365.282 355.131 364.376 356.681C363.225 358.655 363.857 361.242 365.07 363.2C367.303 366.904 371.148 369.29 375.159 370.708C379.17 372.126 383.413 372.692 387.595 373.528C394.984 375.004 402.555 377.37 409.908 375.703C412.841 375.036 415.608 373.745 418.572 373.184C425.308 371.904 432.257 374.491 439.019 373.454C442.288 372.951 445.377 371.618 448.346 370.115C449.835 369.458 451.189 368.519 452.336 367.348C453.419 366.121 454.072 364.38 453.626 362.792C453.372 361.877 452.787 361.105 452.398 360.242C451.787 358.909 451.662 357.411 451.517 355.946C450.958 350.367 450.009 344.836 448.678 339.395C448.216 337.496 447.527 335.379 445.791 334.548C445.437 334.353 445.023 334.306 444.636 334.416C444.019 334.654 443.817 335.416 443.631 336.056C443.122 337.826 442.148 339.42 440.814 340.665C439.481 341.91 437.839 342.757 436.067 343.116C434.295 343.475 432.46 343.331 430.763 342.7C429.065 342.07 427.569 340.976 426.437 339.538" fill="#00A69F"/>
<path opacity="0.06" d="M401.7 107.093C401.699 108.344 401.63 109.595 401.493 110.839C399.86 111.089 398.192 110.941 396.625 110.409C395.059 109.877 393.637 108.974 392.476 107.775C391.383 106.59 390.564 105.156 389.481 103.96C388.398 102.765 386.89 101.77 385.336 101.897C384.009 101.997 382.859 102.855 381.952 103.849C380.772 105.144 379.908 106.705 379.429 108.405C379.081 109.606 378.91 110.971 377.936 111.77C376.962 112.569 375.765 112.516 374.61 112.474C373.112 112.421 371.558 112.347 370.236 111.627C367.749 110.257 366.91 107.119 365.987 104.389C364.433 99.8015 360.935 91.1241 355.499 90.1981C352.908 89.7589 349.758 91.1558 347.727 92.6638C344.664 94.9337 342.405 96.4046 338.446 96.3411C340.942 88.9034 345.941 82.6108 352.553 78.5825C359.165 74.5542 366.963 73.0514 374.558 74.3414C382.153 75.6314 389.054 79.6305 394.034 85.6275C399.013 91.6244 401.748 99.2305 401.752 107.093H401.7Z" fill="black"/>
<path d="M338.399 95.1295C337.465 95.15 336.535 94.9995 335.653 94.685C333.14 93.6797 331.917 90.7166 331.705 87.9705C331.373 83.7852 332.741 79.6793 334.114 75.7162C334.404 74.8538 334.752 73.9278 335.508 73.4463C336.121 73.1393 336.79 72.968 337.472 72.9437C341.192 72.4146 344.421 70.0918 347.167 67.4885C349.913 64.8853 352.39 61.9328 355.458 59.7635C363.593 54.0331 375.667 55.102 382.703 62.1709C385.491 64.9646 387.885 68.7531 391.751 69.4092C393.979 69.7849 396.368 69.0018 398.487 69.8484C400.042 70.4674 401.15 71.8696 402.042 73.3035C404.933 77.9385 406.291 83.4307 406.742 88.9071C407.192 94.3834 406.778 99.8915 406.358 105.368C406.382 106.188 406.175 106.997 405.762 107.701C405.431 108.107 405.015 108.433 404.545 108.654C402.574 109.645 400.348 109.979 398.182 109.606C396.016 109.234 394.02 108.175 392.476 106.579C391.378 105.4 390.564 103.966 389.481 102.765C388.398 101.563 386.89 100.579 385.336 100.706C384.014 100.807 382.854 101.664 381.952 102.659C380.772 103.954 379.908 105.515 379.429 107.214C379.087 108.416 378.91 109.781 377.936 110.574C376.962 111.368 375.765 111.326 374.604 111.283C373.112 111.225 371.557 111.156 370.236 110.431C367.744 109.066 366.904 105.929 365.987 103.198C364.433 98.611 360.94 89.9283 355.499 89.0076C352.908 88.5631 349.758 89.9653 347.727 91.4733C344.618 93.7273 342.379 95.1982 338.399 95.1295Z" fill="#464353"/>
<path opacity="0.06" d="M166.801 292.711C166.443 295.124 164.277 297.008 162.748 298.881C158.593 304.003 154.38 309.14 149.732 313.828C144.757 318.839 139.296 323.305 133.839 327.77L126.761 333.554C125.888 334.369 124.865 334.998 123.751 335.406C122.446 335.738 121.067 335.57 119.875 334.935C119.978 334.723 120.087 334.527 120.206 334.331L128.694 319.807C130.362 316.961 131.456 314.368 133.358 311.696C136.223 307.696 139.114 303.675 142.643 300.283C147.105 295.992 152.825 292.875 158.132 289.775C158.898 287.425 162.111 286.775 164.282 287.886C165.087 288.312 165.811 288.88 166.422 289.563C166.811 290.562 166.942 291.646 166.801 292.711V292.711Z" fill="black"/>
<path d="M129.285 320.405L120.797 334.935C120.45 335.522 120.092 336.189 120.243 336.855C120.433 337.415 120.797 337.896 121.279 338.226C124.533 340.93 128.14 343.781 129.16 347.935C129.891 350.898 129.16 354.073 129.813 357.046C131.01 362.412 136.29 365.671 141.286 367.734C152.478 372.359 164.904 374.137 176.796 371.967C188.688 369.798 199.974 363.618 207.674 354.115C210.037 351.194 212.058 347.998 214.302 344.983C220.52 336.649 228.412 329.808 236.241 323.035C246.32 314.315 252.258 301.309 261.114 291.288C262.725 289.463 264.502 287.584 266.814 286.981C268.109 286.648 269.923 287.14 269.974 288.505C270.094 291.15 272.177 293.315 273.602 295.526C278.97 303.907 284.587 312.548 292.883 317.892C297.422 320.823 302.568 322.617 307.698 324.241C320.704 328.379 333.964 331.649 347.208 334.887C347.877 333.522 348.679 332.23 349.602 331.03C350.976 329.31 352.784 327.998 354.162 326.268C356.686 323.151 357.572 319.029 358.38 315.072C350.468 310.124 342.348 305.019 334.544 299.876C330.616 297.293 326.663 294.653 323.481 291.161C321.408 288.865 319.667 286.235 317.59 283.923C315.464 281.679 313.174 279.604 310.739 277.716L292.085 262.462C286.727 258.086 281.265 253.467 276.022 248.938C273.073 246.387 269.803 243.705 265.948 243.583C262.647 243.477 259.611 245.282 256.771 247.017C240.093 257.215 223.166 266.954 205.99 276.235C202.513 278.108 199.021 279.97 195.704 282.124C189.252 286.315 183.523 291.568 178.75 297.669C177.874 298.786 176.765 300.055 175.376 299.886C174.995 299.829 174.627 299.698 174.293 299.5C172.153 298.331 170.842 296.071 169.63 293.928C168.417 291.785 167.065 289.531 164.894 288.42C162.723 287.309 159.515 287.96 158.743 290.314C153.411 293.505 147.711 296.595 143.244 300.886C139.716 304.278 136.824 308.294 133.959 312.299C132.047 314.971 130.948 317.564 129.285 320.405Z" fill="#464353"/>
<path opacity="0.06" d="M115.382 231.789C115.382 231.789 123.916 235.657 130.036 240.022Z" fill="black"/>
<path d="M542.804 239.742C542.959 244.678 543.084 249.625 543.027 254.557C542.996 257.171 542.887 259.896 541.659 262.187C540.783 263.832 539.4 265.118 538.032 266.377L529.497 274.277C526.849 276.727 523.994 279.282 520.465 279.891C516.429 280.589 512.486 278.584 508.604 277.245C504.696 275.901 500.603 275.199 496.479 275.166C494.116 275.166 491.733 275.356 489.401 274.975C487.715 274.648 486.06 274.168 484.457 273.541L476.752 270.811C476.97 268.827 478.825 267.562 480.379 266.308C485.898 261.737 488.318 254.388 490.059 247.356C491.474 241.866 492.482 236.275 493.075 230.63C493.339 227.837 493.458 224.995 492.883 222.249C492.34 220.034 491.576 217.881 490.603 215.826L487.893 209.587C486.338 206.064 483.229 204.497 480.063 202.418C484.841 204.27 490.665 204.995 494.298 208.667C494.998 209.48 495.829 210.167 496.754 210.699C497.743 211.18 498.868 211.228 499.951 211.408C505.345 212.233 509.931 215.693 514.387 218.895C519.842 222.817 525.449 226.501 531.207 229.948C533.798 231.503 536.472 233.032 538.653 235.154C540.835 237.276 542.545 240.101 542.685 243.176" fill="#464353"/>
<path opacity="0.06" d="M78.1253 231.075C71.332 232.445 67.7981 240.599 68.1971 247.652C68.5805 253.952 71.1145 259.915 75.3583 264.504C78.1927 267.547 81.7266 269.896 84.2864 273.182C88.0691 278.028 89.3853 284.436 92.7689 289.584C95.2251 293.32 98.671 296.251 102.096 299.061C109.993 305.495 118.147 311.585 126.559 317.331C129.979 319.664 133.72 322.024 137.835 321.934C141.711 321.85 145.281 319.527 147.81 316.521C150.338 313.516 151.955 309.865 153.598 306.267C159.515 293.092 165.474 279.774 168.303 265.573C169.189 261.113 169.785 256.515 171.765 252.435C173.319 249.26 175.62 246.541 177.672 243.673C182.52 236.868 185.923 229.104 187.662 220.879C188.792 215.514 189.17 209.767 187.315 204.635C185.46 199.503 180.957 195.053 175.594 194.651C171.35 194.333 167.184 196.555 164.334 199.788C161.484 203.021 159.805 207.154 158.66 211.339C157.018 217.36 156.388 223.622 156.795 229.858C157.126 234.89 158.132 239.969 157.282 244.943C156.681 248.451 155.183 251.726 153.701 254.954C149.872 263.282 145.98 271.716 140.192 278.764C138.306 281.06 135.71 283.383 132.824 282.843C128.834 282.103 127.777 276.944 125.808 273.319C123.393 268.875 118.812 266.203 115.221 262.673C110.112 257.647 107.05 250.906 103.417 244.684C99.785 238.461 95.0852 232.318 88.3904 229.932C81.6955 227.546 72.7726 230.609 71.0522 237.636" fill="black"/>
<path opacity="0.06" d="M83.25 235.906C76.4516 237.276 67.798 238.17 68.2229 245.234C68.602 251.535 71.1366 257.499 75.3841 262.086C78.2185 265.134 81.7525 267.483 84.3123 270.769C88.095 275.616 89.4111 282.018 92.7948 287.172C95.251 290.912 98.6968 293.844 102.122 296.648C110.019 303.085 118.173 309.176 126.585 314.918C130.005 317.257 133.746 319.617 137.86 319.527C141.736 319.442 145.307 317.114 147.835 314.114C150.364 311.114 151.981 307.458 153.623 303.854C159.541 290.68 165.5 277.362 168.329 263.16C169.215 258.705 169.811 254.102 171.791 250.028C173.345 246.853 175.646 244.133 177.698 241.26C182.546 234.458 185.949 226.695 187.688 218.471C188.818 213.101 189.196 207.36 187.341 202.222C185.486 197.084 180.983 192.645 175.62 192.238C171.376 191.92 167.21 194.148 164.36 197.376C161.51 200.603 159.831 204.741 158.686 208.931C157.044 214.952 156.413 221.214 156.821 227.45C157.152 232.488 158.157 237.567 157.308 242.535C156.707 246.049 155.209 249.324 153.727 252.552C149.898 260.88 146.006 269.309 140.218 276.362C138.332 278.658 135.736 280.976 132.85 280.441C128.86 279.695 127.803 274.536 125.834 270.917C123.419 266.473 118.838 263.801 115.247 260.271C110.138 255.25 107.076 248.504 103.443 242.281C99.8109 236.059 95.111 229.921 88.4162 227.53C81.7214 225.138 90.1055 240.456 88.38 247.483" fill="black"/>
<path d="M78.1253 229.863C71.332 231.234 67.7981 239.387 68.1971 246.44C68.5793 252.742 71.1134 258.707 75.3583 263.298C78.1927 266.34 81.7266 268.689 84.2864 271.975C88.0691 276.822 89.3853 283.23 92.7689 288.378C95.2251 292.119 98.671 295.05 102.096 297.86C109.993 304.294 118.147 310.382 126.559 316.125C129.979 318.463 133.72 320.823 137.835 320.733C141.711 320.649 145.281 318.326 147.81 315.32C150.338 312.315 151.955 308.664 153.598 305.066C159.515 291.891 165.474 278.573 168.303 264.367C169.189 259.912 169.785 255.308 171.765 251.234C173.319 248.059 175.62 245.34 177.672 242.467C182.521 235.664 185.923 227.902 187.662 219.678C188.792 214.307 189.17 208.566 187.315 203.429C185.46 198.291 180.957 193.852 175.594 193.449C171.35 193.127 167.184 195.354 164.334 198.587C161.484 201.82 159.805 205.952 158.66 210.138C157.018 216.159 156.388 222.42 156.795 228.657C157.126 233.689 158.132 238.768 157.282 243.736C156.681 247.25 155.183 250.525 153.701 253.753C149.872 262.081 145.98 270.515 140.192 277.563C138.306 279.859 135.71 282.177 132.824 281.642C128.834 280.896 127.777 275.743 125.808 272.118C123.393 267.668 118.812 264.996 115.221 261.472C110.112 256.446 107.05 249.705 103.417 243.483C99.785 237.26 95.0852 231.122 88.3904 228.736C81.6955 226.35 72.7726 229.413 71.0522 236.44" fill="#FBBEBE"/>
<g opacity="0.06">
<path opacity="0.06" d="M52.1595 187.597C50.0062 183.966 48.1965 180.134 46.755 176.153L46.5788 175.624C45.4853 174.425 44.5657 173.073 43.848 171.608C42.7371 169.112 42.1342 166.412 42.0758 163.671C42.0758 163.57 42.0758 163.47 42.0758 163.369C41.7051 164.216 41.432 165.104 41.2623 166.015C40.7441 168.999 41.5991 172.047 42.6251 174.893C44.0677 178.874 45.8773 182.707 48.0297 186.338C51.2475 191.83 55.3567 197.122 55.994 203.423C56.9526 212.852 49.9884 221.154 48.268 230.472C46.9519 237.588 48.6204 245.541 44.8947 251.7C43.4055 254.022 41.4058 255.957 39.0549 257.351C37.5804 258.31 35.966 259.024 34.2721 259.467C33.9632 259.841 33.6309 260.195 33.2772 260.525C36.5676 261.689 40.2311 260.435 43.1951 258.573C45.5451 257.176 47.5445 255.239 49.0349 252.917C52.7606 246.758 51.1076 238.805 52.4031 231.689C54.1286 222.376 61.0929 214.069 60.1342 204.64C59.4917 198.301 55.3878 193.016 52.1595 187.597Z" fill="black"/>
<path opacity="0.06" d="M111.957 141.035C110.625 137.887 107.812 135.654 104.92 133.903C101.255 131.657 97.2661 130.014 93.1005 129.035C95.7738 129.988 98.3466 131.213 100.78 132.691C103.671 134.448 106.48 136.676 107.822 139.829C109.164 142.983 108.496 147.237 105.614 148.993C103.583 150.237 101.049 150.014 98.6813 149.962C96.6348 149.914 94.5877 150.02 92.5564 150.279C91.823 150.333 91.1059 150.527 90.4423 150.85C89.5776 151.422 88.8966 152.241 88.4836 153.205C87.6504 154.832 87.0899 156.59 86.8254 158.406C86.5353 160.438 86.5612 162.666 85.3175 164.279C83.6283 166.475 80.9856 166.142 78.5813 166.576C76.4933 166.985 74.492 167.766 72.6689 168.883C68.6997 171.332 65.8652 175.809 65.6839 180.587C65.6217 182.29 65.8497 184.031 65.3989 185.671C65.1081 186.628 64.6518 187.524 64.0516 188.317C64.9698 189.319 65.773 190.425 66.4456 191.613C67.7151 190.201 69.0365 188.719 69.5547 186.878C70.0106 185.238 69.7775 183.492 69.8448 181.788C70.0262 177.026 72.8606 172.539 76.8298 170.084C78.6516 168.965 80.6535 168.186 82.7422 167.782C85.1362 167.343 87.7789 167.676 89.4785 165.48C90.7221 163.893 90.691 161.639 90.9864 159.607C91.2491 157.792 91.8078 156.033 92.6394 154.406C93.055 153.451 93.7361 152.642 94.5981 152.078C95.2601 151.75 95.978 151.556 96.7122 151.507C98.7435 151.248 100.79 151.14 102.837 151.184C105.205 151.242 107.739 151.459 109.77 150.216C112.631 148.443 113.289 144.21 111.957 141.035Z" fill="black"/>
</g>
<path opacity="0.06" d="M78.0269 191.592C78.0269 191.592 84.1465 196.968 95.7692 193.709C95.7692 193.698 88.5717 196.592 78.0269 191.592Z" fill="black"/>
<path opacity="0.06" d="M406.244 100.902C406.256 101.719 406.041 102.523 405.622 103.22C405.291 103.624 404.875 103.948 404.405 104.167C402.436 105.159 400.211 105.494 398.046 105.123C395.88 104.751 393.885 103.693 392.342 102.098C391.243 100.913 390.43 99.4523 389.347 98.283C388.264 97.1136 386.756 96.0924 385.201 96.2194C383.88 96.3253 382.724 97.1824 381.817 98.1719C380.643 99.4712 379.78 101.03 379.294 102.728C378.957 103.934 378.776 105.294 377.807 106.093C376.838 106.892 375.636 106.839 374.475 106.796C372.977 106.744 371.423 106.675 370.107 105.95C367.614 104.585 366.775 101.442 365.852 98.7168C364.298 94.1241 360.805 85.4467 355.37 84.5207C352.779 84.0815 349.623 85.4837 347.597 86.9864C344.535 89.2563 342.276 90.7272 338.311 90.6902C337.378 90.7085 336.448 90.558 335.565 90.2457C333.285 89.3304 332.067 86.8012 331.7 84.2932C331.559 85.4427 331.529 86.6035 331.611 87.7589C331.829 90.4997 333.052 93.4627 335.565 94.4734C336.448 94.7857 337.378 94.9361 338.311 94.9178C342.276 94.9813 344.53 93.5104 347.597 91.2405C349.634 89.7378 352.779 88.3303 355.37 88.7748C360.785 89.6743 364.308 98.3518 365.832 102.939C366.754 105.669 367.594 108.812 370.086 110.177C371.402 110.897 372.957 110.971 374.454 111.024C375.615 111.066 376.89 111.072 377.786 110.32C378.683 109.569 378.936 108.156 379.273 106.955C379.758 105.258 380.621 103.698 381.797 102.399C382.704 101.41 383.869 100.553 385.18 100.447C386.776 100.32 388.289 101.31 389.326 102.511C390.362 103.712 391.222 105.156 392.321 106.326C393.864 107.92 395.86 108.979 398.025 109.35C400.19 109.721 402.415 109.387 404.384 108.394C404.853 108.173 405.269 107.85 405.602 107.447C406.021 106.749 406.236 105.943 406.224 105.124C406.629 100.668 406.802 96.1921 406.742 91.7167C406.7 94.7802 406.477 97.8438 406.244 100.902Z" fill="black"/>
<path d="M46.5373 326.622C46.5373 326.622 47.3612 325.686 45.8118 325.315V323.776H46.7446C46.7425 321.915 46.1151 320.112 44.9673 318.667C43.8194 317.223 42.2207 316.224 40.4384 315.839V313.971H40.6819V311.542H34.6866V313.971H34.8576V315.86C33.092 316.264 31.514 317.271 30.3836 318.713C29.2533 320.156 28.6381 321.949 28.6395 323.797H29.4634V325.273C29.4634 325.273 27.4995 326.22 29.4634 327.919C31.4273 329.617 31.1216 330.845 31.1216 330.845C31.1216 330.845 30.2977 334.019 28.6447 334.432V363.867C28.644 364.726 28.8092 365.577 29.1307 366.371C29.4523 367.165 29.9239 367.887 30.5187 368.494C31.1135 369.102 31.8198 369.584 32.5972 369.913C33.3746 370.242 34.2078 370.412 35.0493 370.412H40.1119C41.8119 370.412 43.4423 369.722 44.6443 368.495C45.8464 367.267 46.5217 365.602 46.5217 363.867V334.432C46.5217 334.432 43.6251 332.215 44.1433 330.845C44.8385 329.379 45.6386 327.968 46.5373 326.622V326.622Z" fill="#464353"/>
</g>
<defs>
<linearGradient id="paint0_linear_132_186" x1="287.592" y1="375.602" x2="287.592" y2="52.3664" gradientUnits="userSpaceOnUse">
<stop stop-color="#808080" stop-opacity="0.25"/>
<stop offset="0.54" stop-color="#808080" stop-opacity="0.12"/>
<stop offset="1" stop-color="#808080" stop-opacity="0.1"/>
</linearGradient>
<clipPath id="clip0_132_186">
<rect width="597" height="408" fill="white"/>
</clipPath>
</defs>
</svg>
