<svg width="588" height="493" viewBox="0 0 588 493" fill="none" xmlns="http://www.w3.org/2000/svg">
<path d="M156.611 299.71C155.028 299.71 153.429 299.685 151.859 299.636L151.895 298.498C154.149 298.568 156.449 298.588 158.714 298.556L158.729 299.696C158.025 299.705 157.319 299.71 156.611 299.71ZM165.596 299.446L165.529 298.309C167.786 298.176 170.073 297.989 172.324 297.753L172.444 298.886C170.175 299.124 167.871 299.313 165.596 299.446ZM144.999 299.269C142.723 299.095 140.423 298.866 138.162 298.589L138.301 297.459C140.545 297.733 142.827 297.96 145.086 298.132L144.999 299.269ZM179.258 298.016L179.087 296.889C181.33 296.549 183.59 296.155 185.803 295.716L186.025 296.833C183.795 297.276 181.518 297.673 179.258 298.016ZM131.364 297.599C129.115 297.218 126.845 296.781 124.617 296.298L124.859 295.184C127.07 295.664 129.323 296.098 131.554 296.475L131.364 297.599ZM192.732 295.341L192.458 294.235C194.66 293.691 196.874 293.091 199.038 292.45L199.363 293.542C197.181 294.188 194.95 294.794 192.732 295.341ZM117.939 294.688C115.733 294.102 113.513 293.458 111.341 292.772L111.685 291.686C113.84 292.366 116.043 293.005 118.232 293.586L117.939 294.688ZM205.903 291.44L205.528 290.363C207.665 289.622 209.814 288.82 211.916 287.98L212.34 289.038C210.222 289.884 208.056 290.692 205.903 291.44H205.903ZM104.822 290.547C102.679 289.761 100.524 288.912 98.4152 288.025L98.8582 286.975C100.951 287.855 103.09 288.697 105.216 289.478L104.822 290.547ZM218.644 286.349L218.172 285.312C220.223 284.381 222.286 283.387 224.301 282.358L224.821 283.373C222.789 284.41 220.712 285.411 218.644 286.349H218.644ZM230.854 280.116L230.289 279.127C232.257 278.006 234.221 276.827 236.126 275.623L236.736 276.586C234.816 277.799 232.838 278.987 230.854 280.116H230.854ZM242.451 272.79L241.798 271.856C243.651 270.564 245.5 269.21 247.293 267.833L247.989 268.737C246.182 270.124 244.318 271.488 242.451 272.79ZM68.5142 271.185C66.6722 269.849 64.8322 268.45 63.0449 267.025L63.757 266.134C65.5307 267.548 67.3568 268.937 69.1845 270.263L68.5142 271.185ZM253.337 264.436L252.601 263.564C254.328 262.109 256.046 260.593 257.71 259.057L258.484 259.894C256.809 261.441 255.077 262.969 253.337 264.436H253.337ZM57.7723 262.621C56.0569 261.12 54.3526 259.56 52.7071 257.983L53.4972 257.16C55.1305 258.726 56.8217 260.275 58.524 261.764L57.7723 262.621ZM263.421 255.122L262.608 254.321C264.201 252.71 265.775 251.043 267.288 249.367L268.136 250.129C266.612 251.819 265.025 253.498 263.421 255.122ZM47.8596 253.121C46.2857 251.468 44.7313 249.76 43.2395 248.044L44.1016 247.297C45.5819 249 47.1243 250.695 48.6865 252.335L47.8596 253.121ZM272.619 244.927L271.738 244.204C273.176 242.456 274.592 240.652 275.948 238.842L276.862 239.525C275.496 241.349 274.069 243.166 272.619 244.927L272.619 244.927ZM38.8566 242.764C37.4432 240.98 36.0515 239.139 34.72 237.291L35.6461 236.626C36.9675 238.459 38.3487 240.286 39.7515 242.057L38.8566 242.764ZM280.852 233.934L279.908 233.294C281.181 231.422 282.428 229.496 283.613 227.568L284.586 228.165C283.391 230.107 282.135 232.048 280.852 233.933L280.852 233.934ZM30.8388 231.638C29.5954 229.734 28.3784 227.775 27.2213 225.814L28.2042 225.236C29.3527 227.182 30.5605 229.126 31.7945 231.014L30.8388 231.638ZM288.051 222.23L287.052 221.679C288.148 219.699 289.212 217.666 290.217 215.636L291.24 216.141C290.228 218.186 289.155 220.235 288.051 222.23ZM294.145 209.91L293.1 209.453C294.009 207.379 294.883 205.255 295.696 203.141L296.761 203.549C295.942 205.68 295.061 207.82 294.145 209.91ZM18.0254 207.452C17.1506 205.355 16.3128 203.21 15.5354 201.075L16.6081 200.686C17.3793 202.804 18.2107 204.933 19.0786 207.013L18.0254 207.452ZM299.08 197.072L297.997 196.714C298.709 194.571 299.381 192.381 299.994 190.204L301.093 190.512C300.475 192.706 299.797 194.913 299.08 197.072ZM13.3371 194.575C12.6581 192.403 12.0201 190.185 11.4408 187.98L12.5447 187.691C13.1195 189.879 13.7528 192.08 14.4265 194.236L13.3371 194.575ZM302.8 183.866L301.688 183.608C302.199 181.411 302.666 179.168 303.077 176.942L304.199 177.148C303.786 179.392 303.315 181.652 302.8 183.866V183.866ZM9.85164 181.305C9.37575 179.079 8.94501 176.812 8.57166 174.564L9.69728 174.377C10.0681 176.608 10.4955 178.858 10.9678 181.067L9.85164 181.305ZM305.287 170.374L304.156 170.22C304.463 167.988 304.722 165.712 304.926 163.455L306.063 163.557C305.857 165.832 305.595 168.125 305.287 170.374V170.374ZM7.60262 167.772C7.33348 165.517 7.11253 163.219 6.94564 160.944L8.08407 160.86C8.24929 163.119 8.46885 165.399 8.73605 167.638L7.60262 167.772ZM306.528 156.713L305.388 156.662C305.489 154.404 305.541 152.114 305.541 149.855H306.682C306.682 152.131 306.63 154.439 306.528 156.713ZM6.59987 154.091C6.56087 152.694 6.5411 151.269 6.5408 149.855C6.5408 148.978 6.54833 148.103 6.56337 147.229L7.70459 147.249C7.68955 148.116 7.68202 148.985 7.68202 149.855C7.6823 151.258 7.70209 152.673 7.74053 154.06L6.59987 154.091ZM7.97541 140.446L6.83642 140.375C6.97879 138.098 7.1755 135.798 7.4204 133.539L8.55494 133.662C8.31171 135.904 8.11693 138.186 7.97539 140.446H7.97541ZM304.804 133.494C304.576 131.247 304.263 130.152 303.932 127.915L305.061 127.749C305.394 130.002 305.68 131.723 305.91 133.986L304.804 133.494ZM9.44343 126.912L8.31558 126.738C8.66525 124.483 9.07148 122.211 9.52312 119.983L10.6415 120.209C10.1935 122.42 9.79031 124.675 9.44343 126.912ZM302.78 121.205C302.345 118.982 301.854 116.744 301.32 114.554L302.429 114.285C302.966 116.492 303.461 118.747 303.9 120.986L302.78 121.205ZM12.1466 113.569L11.0396 113.292C11.5938 111.085 12.2076 108.859 12.864 106.677L13.9568 107.005C13.3056 109.17 12.6966 111.379 12.1466 113.569ZM299.554 107.977C298.918 105.808 298.223 103.625 297.488 101.489L298.566 101.119C299.308 103.271 300.009 105.471 300.65 107.657L299.554 107.977ZM16.0751 100.513L14.9985 100.135C15.7569 97.9811 16.5758 95.8166 17.4323 93.7018L18.4905 94.1292C17.6404 96.2275 16.8277 98.3756 16.0751 100.513ZM295.123 95.1032C294.29 93.006 293.399 90.9013 292.473 88.8472L293.513 88.3792C294.447 90.4492 295.345 92.57 296.184 94.6831L295.123 95.1032ZM21.1972 87.8653L20.1602 87.3896C21.1134 85.3168 22.1278 83.2383 23.1754 81.2117L24.1896 81.7342C23.1498 83.7455 22.1431 85.8082 21.1972 87.8653ZM289.538 82.7169C288.516 80.7051 287.434 78.6891 286.321 76.7258L287.314 76.1643C288.436 78.143 289.526 80.1743 290.555 82.2017L289.538 82.7169ZM27.4609 75.7486L26.4718 75.18C27.6102 73.206 28.8108 71.2301 30.0403 69.3076L31.0021 69.9208C29.782 71.8288 28.5904 73.7897 27.4609 75.7486ZM282.833 70.8854C281.627 68.9685 280.364 67.0588 279.08 65.2092L280.017 64.5598C281.312 66.4236 282.584 68.3477 283.799 70.2794L282.833 70.8854ZM34.8064 64.2624L33.8735 63.6058C35.1892 61.7426 36.5647 59.8854 37.9628 58.0859L38.8644 58.7843C37.4772 60.5704 36.1117 62.4134 34.8064 64.2624ZM275.07 59.7085C273.695 57.9098 272.263 56.1217 270.812 54.394L271.687 53.662C273.148 55.4031 274.591 57.2045 275.977 59.0169L275.07 59.7085ZM43.1677 53.4984L42.299 52.7594C43.7754 51.0278 45.3142 49.3042 46.8725 47.6366L47.7067 48.414C46.1603 50.0691 44.6332 51.7798 43.1677 53.4984ZM266.316 49.2773C264.783 47.611 263.193 45.9595 261.59 44.3692L262.395 43.5607C264.01 45.1635 265.612 46.8273 267.157 48.506L266.316 49.2773ZM52.4713 43.5429L51.6734 42.7283C53.3052 41.1341 54.9939 39.5579 56.6921 38.0439L57.4522 38.8941C55.7668 40.3965 54.0909 41.9607 52.4713 43.5429ZM256.646 39.6798C254.966 38.1582 253.231 36.6575 251.491 35.2194L252.218 34.3414C253.972 35.7903 255.72 37.3024 257.413 38.8357L256.646 39.6798ZM62.6387 34.4766L61.9182 33.593C63.6832 32.1576 65.5073 30.742 67.3401 29.3855L68.02 30.3008C66.2008 31.6474 64.3904 33.0521 62.6387 34.4766ZM73.5842 26.3757L72.9473 25.4303C74.8363 24.1611 76.7811 22.9183 78.7278 21.7356L79.3207 22.7093C77.389 23.8828 75.459 25.1165 73.5842 26.3757ZM85.2177 19.3095L84.6699 18.3096C86.6684 17.2176 88.7176 16.1581 90.7605 15.1601L91.262 16.184C89.2348 17.1742 87.2011 18.2255 85.2177 19.3095ZM222.946 16.6692C220.915 15.659 218.835 14.683 216.763 13.7685L217.225 12.7263C219.313 13.6477 221.409 14.6312 223.455 15.6492L222.946 16.6692ZM97.4412 13.3392L96.9876 12.2936C99.0761 11.3897 101.213 10.5228 103.337 9.71676L103.742 10.7823C101.634 11.582 99.5139 12.4422 97.4412 13.3392ZM210.452 11.1543C208.339 10.3361 206.176 9.5554 204.023 8.83426L204.387 7.75365C206.555 8.48064 208.735 9.26716 210.864 10.0921L210.452 11.1543ZM110.171 8.51238L109.815 7.42955C111.984 6.71953 114.197 6.05097 116.392 5.44307L116.697 6.54092C114.519 7.14438 112.323 7.80765 110.171 8.51238ZM197.51 6.81802C195.334 6.19843 193.114 5.62141 190.912 5.10309L191.174 3.99411C193.393 4.51632 195.63 5.09779 197.824 5.72185L197.51 6.81802ZM123.307 4.87189L123.053 3.76096C125.277 3.25376 127.541 2.79165 129.785 2.38767L129.987 3.50889C127.761 3.91008 125.514 4.36859 123.307 4.87189ZM184.242 3.69418C182.019 3.27769 179.756 2.9071 177.513 2.59272L177.672 1.46426C179.931 1.78115 182.213 2.15452 184.452 2.57408L184.242 3.69418ZM136.724 2.45418L136.573 1.32461C138.832 1.02358 141.129 0.770395 143.401 0.572865L143.5 1.70799C141.246 1.90441 138.966 2.15536 136.724 2.45418ZM170.741 1.80036C168.493 1.58892 166.205 1.42588 163.94 1.31654L163.996 0.178096C166.278 0.28855 168.583 0.452702 170.848 0.665838L170.741 1.80036ZM150.305 1.27091L150.257 0.132467C152.355 0.0451065 154.492 0.000588914 156.611 3.05176e-05L157.128 0.000868434L157.125 1.14045L156.611 1.13961C154.508 1.14014 152.386 1.18438 150.305 1.2709V1.27091Z" fill="#3F3D56"/>
<path d="M340.222 53.6779V423.017C340.217 427.417 338.464 431.635 335.348 434.745C332.231 437.855 328.006 439.602 323.6 439.604H173.444C171.261 439.607 169.098 439.181 167.081 438.349C165.063 437.517 163.23 436.296 161.686 434.755C160.141 433.214 158.917 431.384 158.082 429.37C157.248 427.356 156.819 425.197 156.822 423.017V53.6779C156.821 51.4981 157.251 49.3397 158.087 47.3258C158.922 45.312 160.146 43.4822 161.69 41.9409C163.233 40.3995 165.066 39.177 167.082 38.3429C169.099 37.5088 171.261 37.0796 173.444 37.0798H195.914V39.9573C195.914 43.5817 197.355 47.058 199.921 49.6214C202.487 52.1848 205.968 53.6255 209.597 53.6266H285.968C288.89 53.6328 291.735 52.6976 294.082 50.9599C294.556 50.6154 295.006 50.2384 295.429 49.8318C296.765 48.5571 297.829 47.0247 298.555 45.3273C299.281 43.6299 299.654 41.8029 299.651 39.9573V37.0798H323.6C325.783 37.0792 327.945 37.508 329.961 38.3419C331.978 39.1758 333.811 40.3984 335.355 41.9398C336.898 43.4812 338.123 45.3112 338.958 47.3253C339.793 49.3393 340.222 51.498 340.222 53.6779Z" fill="#3F3D56"/>
<path d="M318.269 170.223H178.775V276.204H318.269V170.223Z" fill="#00A69F"/>
<path d="M105.318 152.366C117.738 152.632 127.618 161.62 127.618 161.62C127.618 161.62 117.361 170.176 104.942 169.91C92.5217 169.644 82.6419 160.656 82.6419 160.656C82.6419 160.656 92.8986 152.1 105.318 152.366Z" fill="#00A69F"/>
<path d="M42.878 110.032C54.0987 115.355 66.9654 111.745 66.9654 111.745C66.9654 111.745 61.6395 99.5051 50.4188 94.182C39.198 88.8589 26.3314 92.4686 26.3314 92.4686C26.3314 92.4686 31.6572 104.709 42.878 110.032Z" fill="#00A69F"/>
<path d="M44.0186 104.742C56.3897 103.613 67.2181 111.435 67.2181 111.435C67.2181 111.435 57.989 121.088 45.6179 122.217C33.2468 123.346 22.4184 115.524 22.4184 115.524C22.4184 115.524 31.6475 105.871 44.0186 104.742Z" fill="#3F3D56"/>
<path d="M89.3672 106.881C88.1815 119.229 95.9665 130.077 95.9665 130.077C95.9665 130.077 105.674 120.904 106.86 108.556C108.046 96.2075 100.261 85.3599 100.261 85.3599C100.261 85.3599 90.553 94.5326 89.3672 106.881Z" fill="#3F3D56"/>
<path d="M147.629 182.612C141.14 193.19 143.373 206.348 143.373 206.348C143.373 206.348 156.125 202.356 162.614 191.777C169.103 181.199 166.87 168.041 166.87 168.041C166.87 168.041 154.118 172.034 147.629 182.612Z" fill="#3F3D56"/>
<path d="M128.804 297.624L129.75 296.985C126.417 292.155 124.597 286.445 124.522 280.58C124.548 272 128.768 264.064 132.85 256.39C133.607 254.965 134.362 253.545 135.089 252.126C138.138 246.34 140.567 240.249 142.338 233.954C148.669 210.462 142.436 182.745 125.665 159.812C112.361 141.619 92.5286 125.711 65.0353 111.177L64.5015 112.184C91.8382 126.635 111.543 142.434 124.743 160.484C141.312 183.141 147.477 210.496 141.236 233.658C139.486 239.876 137.085 245.892 134.073 251.608C133.349 253.021 132.596 254.436 131.842 255.855C127.695 263.652 123.408 271.714 123.38 280.576C123.456 286.67 125.344 292.604 128.804 297.624Z" fill="#3F3D56"/>
<path d="M10.8418 112.674C16.8295 112.674 21.6834 107.827 21.6834 101.848C21.6834 95.8692 16.8295 91.0223 10.8418 91.0223C4.85417 91.0223 0.000213623 95.8692 0.000213623 101.848C0.000213623 107.827 4.85417 112.674 10.8418 112.674Z" fill="#3F3D56"/>
<path d="M163.458 277.58L95.4021 271.917V172.245L163.458 168.847V277.58Z" fill="#00A69F"/>
<path d="M333.585 277.58L401.641 271.917V172.245L333.585 168.847V277.58Z" fill="#00A69F"/>
<path d="M272.178 210.002C270.153 208.256 267.658 207.144 265.003 206.807C262.349 206.471 259.654 206.923 257.256 208.108C255.174 209.114 252.933 209.754 250.633 210C250.576 205.025 251.491 200.087 253.326 195.461L253.627 194.686H249.627L249.512 195.105C249.066 196.741 248.715 198.401 248.46 200.076C248.244 199.35 247.964 198.644 247.624 197.967C244.818 192.412 238.335 190.14 238.06 190.046L237.508 189.857L237.331 190.413C237.244 190.69 235.22 197.246 238.025 202.801C240.034 206.778 243.927 209.071 246.077 210.088C243.356 209.913 240.695 209.202 238.249 207.997C236.724 207.212 235.009 206.873 233.3 207.017C231.59 207.161 229.956 207.783 228.584 208.812C221.116 214.479 216.833 222.786 216.833 231.603C216.833 243.186 224.344 253.793 235.97 258.627C237.019 259.061 238.143 259.284 239.279 259.283C240.855 259.283 242.403 258.859 243.759 258.056C245.561 257.009 247.607 256.456 249.692 256.451C251.777 256.447 253.826 256.992 255.632 258.032C256.8 258.72 258.112 259.127 259.465 259.222C260.817 259.317 262.174 259.097 263.427 258.58C274.985 253.728 282.453 243.139 282.453 231.603C282.453 223.346 278.803 215.675 272.178 210.002ZM250.5 195.825H251.969C250.317 200.243 249.475 204.922 249.483 209.638H249.221C248.867 204.995 249.3 200.325 250.5 195.825ZM239.044 202.288C236.914 198.071 237.848 193.044 238.261 191.348C239.872 192.023 244.47 194.255 246.604 198.48C248.734 202.696 247.8 207.722 247.387 209.419C245.775 208.741 241.174 206.504 239.044 202.288ZM262.984 257.529C261.895 257.979 260.716 258.17 259.541 258.086C258.365 258.003 257.225 257.648 256.211 257.049C254.228 255.906 251.979 255.307 249.69 255.312C247.401 255.317 245.153 255.925 243.176 257.076C242.164 257.678 241.025 258.036 239.851 258.122C238.677 258.209 237.498 258.021 236.409 257.575C225.21 252.919 217.974 242.725 217.974 231.603C217.974 223.145 222.093 215.169 229.275 209.719C230.653 208.68 232.333 208.12 234.06 208.124C235.335 208.123 236.592 208.427 237.726 209.01C240.852 210.499 244.268 211.282 247.732 211.303C251.195 211.323 254.621 210.581 257.764 209.129C259.961 208.043 262.43 207.629 264.862 207.938C267.294 208.248 269.58 209.267 271.435 210.867C277.804 216.32 281.312 223.684 281.312 231.603C281.312 242.679 274.118 252.855 262.984 257.529Z" fill="white"/>
<path d="M129.244 199.233V197.896H129.776V193.728C129.778 193.419 129.695 193.116 129.536 192.851C129.377 192.586 129.148 192.37 128.874 192.226C126.519 190.999 123.988 191 121.352 192.232C121.061 192.37 120.815 192.587 120.643 192.859C120.471 193.131 120.38 193.447 120.38 193.768V197.896H120.913V199.107C118.953 199.655 117.228 200.831 116.001 202.452C114.774 204.074 114.115 206.053 114.123 208.086V217.103L115.137 217.441L114.123 218.116V220.826L115.137 221.163L114.123 221.839V224.549L115.137 224.886L114.123 225.561V246.201C114.124 247.811 114.766 249.354 115.906 250.492C117.046 251.631 118.591 252.271 120.203 252.273H129.168C130.777 252.271 132.319 251.632 133.456 250.497C134.594 249.361 135.233 247.821 135.235 246.215V225.561L134.221 224.886L135.235 224.549V221.839L134.221 221.164L135.235 220.826V218.116L134.221 217.441L135.235 217.103V207.62C135.228 205.775 134.648 203.977 133.575 202.475C132.502 200.973 130.989 199.84 129.244 199.233ZM121.835 193.264C124.165 192.177 126.296 192.168 128.346 193.236C128.434 193.285 128.508 193.356 128.559 193.442C128.609 193.529 128.636 193.628 128.635 193.728V195.959H121.522V193.768C121.521 193.663 121.55 193.56 121.605 193.471C121.66 193.382 121.74 193.31 121.835 193.264ZM134.094 216.282L131.647 217.097L134.094 218.726V220.004L131.647 220.819L134.094 222.449V223.727L131.647 224.542L134.094 226.171V246.215C134.092 247.519 133.573 248.769 132.65 249.691C131.726 250.613 130.474 251.132 129.168 251.134H120.203C118.894 251.132 117.638 250.612 116.712 249.687C115.786 248.762 115.265 247.508 115.264 246.201V226.171L117.711 224.542L115.264 223.727V222.449L117.711 220.819L115.264 220.004V218.726L117.711 217.097L115.264 216.282V208.086C115.257 206.233 115.881 204.433 117.035 202.982C118.189 201.531 119.803 200.516 121.612 200.104L122.054 200.002V197.896H128.103V200.078L128.514 200.198C130.12 200.67 131.531 201.647 132.537 202.985C133.542 204.322 134.088 205.948 134.094 207.62V216.282Z" fill="white"/>
<path d="M397.467 214.839L394.594 214.265L395.27 212.914L393.953 212.651L394.18 211.283L392.742 211.043V209.745L391.574 209.412L392.683 208.029H390.76L391.161 207.027L389.739 206.791L390.222 205.102H388.683V203.526H388.113C386.315 203.526 385.313 205.658 384.983 206.512C375.059 208.241 346.244 228.171 342.955 230.463C341.588 230.02 339.562 231.058 339.139 231.288L338.469 231.653L339.435 232.618L339.147 233.48L340.92 234.144L340.532 235.113L341.649 236.043L340.646 236.795L342.155 237.699L341.89 239.022L343.576 239.262V240.586L344.555 240.782L344.067 242.49H345.154V243.841H346.215L346.696 245.28L347.19 245.181C348.338 244.951 349.321 243.366 349.705 242.662C359.263 240.959 388.771 220.228 391.644 218.198C394.997 218.599 396.229 217.704 396.361 217.599L396.906 217.163L395.604 216.079L397.467 214.839ZM391.57 217.04L391.348 217.01L391.165 217.14C390.839 217.371 358.477 240.265 349.252 241.581L348.956 241.623L348.822 241.891C348.468 242.61 347.99 243.263 347.41 243.817L347.038 242.701H346.295V241.35H345.579L345.993 239.907L344.717 239.652V238.274L343.246 238.064L343.432 237.135L342.687 236.689L343.488 236.09L341.899 234.768L342.413 233.486L340.578 232.799L340.741 232.31L340.387 231.956C341.244 231.6 342.281 231.336 342.726 231.602L343.044 231.792L343.347 231.58C343.671 231.353 375.813 208.904 385.484 207.587L385.845 207.538L385.953 207.19C386.119 206.652 386.71 205.291 387.542 204.825V206.242H388.71L388.29 207.705L389.574 207.919L389.073 209.168H390.308L389.612 210.037L391.6 210.605V212.008L392.868 212.219L392.645 213.552L393.582 213.739L392.905 215.09L394.542 215.417L393.699 215.978L394.91 216.986C393.81 217.209 392.678 217.227 391.57 217.04Z" fill="white"/>
<path d="M248.522 324.637C257.661 324.637 265.069 317.239 265.069 308.113C265.069 298.987 257.661 291.589 248.522 291.589C239.383 291.589 231.974 298.987 231.974 308.113C231.974 317.239 239.383 324.637 248.522 324.637Z" fill="#00A69F"/>
<path d="M258.94 306.481H250.156V297.709H246.887V306.481H238.103V309.745H246.887V318.516H250.156V309.745H258.94V306.481Z" fill="white"/>
<path d="M300.712 308.682L292.153 304.694V306.973H272.182V310.392H292.153V312.671L300.712 308.682Z" fill="white"/>
<path d="M196.331 308.682L204.89 304.694V306.973H224.862V310.392H204.89V312.671L196.331 308.682Z" fill="white"/>
<path d="M457.65 439.735H39.3929V440.874H457.65V439.735Z" fill="#3F3D56"/>
<path d="M303.3 91.022H193.743V92.1616H303.3V91.022Z" fill="white"/>
<path d="M303.565 402.128H194.008V403.268H303.565V402.128Z" fill="white"/>
<path d="M479.599 289.595L476.746 300.421C476.746 300.421 466.475 323.212 476.746 324.352C487.017 325.491 487.587 294.723 487.587 294.723L479.599 289.595Z" fill="#A0616A"/>
<path d="M497.288 211.533L476.746 292.443C476.746 292.443 484.734 294.723 488.729 297.572L497.288 211.533Z" fill="#D0CDE1"/>
<path d="M561.767 273.071L567.473 361.388C567.473 361.388 581.168 396.146 580.597 429.193C580.597 429.193 575.461 442.299 579.456 444.578C583.45 446.857 585.732 448.566 583.45 450.276C581.168 451.985 579.456 455.974 581.168 457.113C582.879 458.253 583.45 459.962 582.879 459.962H565.761C565.761 459.962 569.185 451.415 564.049 449.136C558.914 446.857 561.767 441.159 561.767 441.159L523.536 329.48L493.293 432.042C493.293 432.042 498.429 435.461 494.435 437.171C490.44 438.88 488.729 435.461 490.44 438.88C492.152 442.299 489.87 444.008 489.87 444.578C489.87 445.148 472.751 442.868 472.751 442.868C472.751 442.868 481.311 435.461 477.316 433.752C473.322 432.042 471.61 430.333 472.751 429.193C473.893 428.054 478.458 417.228 478.458 417.228C478.458 417.228 480.74 376.203 481.311 374.493C481.881 372.784 481.311 364.807 481.311 360.818C481.311 356.83 480.74 340.876 482.452 336.887C484.164 332.899 485.876 283.897 495.005 278.199C504.135 272.501 561.767 273.071 561.767 273.071Z" fill="#2F2E41"/>
<path d="M489.299 441.729C489.299 441.729 500.711 465.09 492.723 467.939C484.734 470.788 474.463 468.509 472.181 471.928C469.898 475.347 444.792 479.335 444.221 470.788C443.65 462.241 471.61 446.287 471.61 446.287L475.252 440.431L489.299 441.729Z" fill="#2F2E41"/>
<path d="M581.738 458.823C581.738 458.823 593.15 482.184 585.162 485.033C577.173 487.882 566.902 485.603 564.62 489.022C562.337 492.44 537.231 496.429 536.66 487.882C536.089 479.335 564.049 463.381 564.049 463.381L567.691 457.525L581.738 458.823Z" fill="#2F2E41"/>
<path d="M528.957 165.665C539.356 165.665 547.787 157.246 547.787 146.862C547.787 136.477 539.356 128.058 528.957 128.058C518.557 128.058 510.126 136.477 510.126 146.862C510.126 157.246 518.557 165.665 528.957 165.665Z" fill="#A0616A"/>
<path d="M541.796 156.833L539.513 173.357L522.395 186.462L517.83 180.194V158.542L541.796 156.833Z" fill="#A0616A"/>
<path d="M514.977 177.915C514.977 177.915 532.666 179.625 541.795 173.357L560.055 281.048C560.055 281.048 495.576 286.176 492.723 282.757V249.139L504.135 194.439L514.977 177.915Z" fill="#3F3D56"/>
<path d="M540.224 168.208L546.36 173.357C546.36 173.357 571.467 177.345 569.755 184.183L562.908 265.093L565.19 292.443C565.19 292.443 545.79 287.315 530.954 292.443C516.118 297.572 527.905 182.244 527.905 182.244C527.905 182.244 541.506 169.897 540.224 168.208Z" fill="#D0CDE1"/>
<path d="M517.83 174.445C517.83 174.445 499.57 187.602 497.288 196.149C495.005 204.695 487.587 294.723 487.587 294.723C487.587 294.723 491.011 293.013 492.723 295.862C494.435 298.711 520.683 178.952 517.83 174.445Z" fill="#D0CDE1"/>
<path d="M568.043 293.583L563.953 306.911C563.953 306.911 562.908 331.759 549.213 328.34C535.519 324.922 553.208 295.862 553.208 295.862L557.202 289.595L568.043 293.583Z" fill="#A0616A"/>
<path d="M510.136 146.042C510.136 146.042 508.097 142.989 508.881 139.701C509.35 137.834 509.535 135.907 509.43 133.986C509.43 133.986 511.076 128.662 512.723 125.687C514.369 122.712 513.585 121.459 518.76 120.52C523.935 119.58 521.818 112.847 535.46 120.128C535.92 120.77 536.56 121.261 537.3 121.54C538.039 121.818 538.845 121.872 539.615 121.694C542.438 121.146 543.457 125.061 543.457 125.061C543.457 125.061 545.339 123.964 546.044 125.53C546.75 127.096 551.781 124.591 551.781 135.16C551.781 145.729 546.056 155.17 546.056 155.17C546.056 155.17 546.475 137.391 537.145 135.591C527.815 133.79 517.78 128.544 515.349 135.277C514.037 139.056 512.288 142.669 510.136 146.042Z" fill="#2F2E41"/>
<path d="M546.26 150.27C547.277 150.27 548.1 149.173 548.1 147.819C548.1 146.466 547.277 145.369 546.26 145.369C545.244 145.369 544.42 146.466 544.42 147.819C544.42 149.173 545.244 150.27 546.26 150.27Z" fill="#A0616A"/>
<path d="M565.19 180.194C565.19 180.194 574.32 177.915 577.173 193.3C580.026 208.684 583.45 252.558 583.45 252.558L569.755 298.711C569.755 298.711 556.061 291.304 553.208 292.443L563.984 252.375L554.919 211.533C554.919 211.533 562.908 180.194 565.19 180.194Z" fill="#D0CDE1"/>
<path opacity="0.15" d="M551.916 212.312L563.899 252.198L551.916 292.653L558.763 252.198L551.916 212.312Z" fill="black"/>
</svg>
